<svg width="10" height="7" viewBox="0 0 10 7" fill="none" xmlns="http://www.w3.org/2000/svg">
<path d="M3.9905 6.65294C3.90299 6.65312 3.8163 6.63601 3.73542 6.6026C3.65453 6.5692 3.58104 6.52015 3.51916 6.45827L0.691162 3.6296C0.627447 3.56815 0.576608 3.49462 0.541613 3.41331C0.506617 3.332 0.488165 3.24454 0.487334 3.15602C0.486503 3.0675 0.503309 2.9797 0.536772 2.89775C0.570234 2.81579 0.619683 2.74133 0.682234 2.67869C0.744784 2.61605 0.819183 2.56649 0.901089 2.53292C0.982995 2.49934 1.07077 2.48241 1.15929 2.48311C1.24781 2.48382 1.3353 2.50215 1.41666 2.53703C1.49802 2.57191 1.57162 2.62264 1.63316 2.68627L3.98983 5.04294L8.23316 0.800937C8.35817 0.675843 8.52775 0.605531 8.70459 0.605469C8.88144 0.605406 9.05107 0.675598 9.17616 0.800604C9.30126 0.925609 9.37157 1.09519 9.37163 1.27203C9.37169 1.44888 9.3015 1.61851 9.1765 1.7436L4.46183 6.45827C4.39995 6.52015 4.32646 6.5692 4.24557 6.6026C4.16469 6.63601 4.07801 6.65312 3.9905 6.65294V6.65294Z" fill="#003467"/>
</svg>
