<svg width="457" height="197" viewBox="0 0 457 197" fill="none" xmlns="http://www.w3.org/2000/svg">
<path d="M17 145.94C17 146.173 16.9347 146.355 16.804 146.486C16.6733 146.617 16.4913 146.682 16.258 146.682H7.816C7.57333 146.682 7.39133 146.621 7.27 146.5C7.13933 146.369 7.074 146.187 7.074 145.954C7.074 145.721 7.13933 145.543 7.27 145.422C7.39133 145.291 7.57333 145.226 7.816 145.226H15.754V140.886C15.754 140.681 15.81 140.522 15.922 140.41C16.0247 140.298 16.174 140.242 16.37 140.242C16.566 140.242 16.72 140.298 16.832 140.41C16.944 140.522 17 140.681 17 140.886V145.94ZM17.126 135.974C17.126 136.72 16.986 137.364 16.706 137.906C16.4167 138.438 16.0107 138.853 15.488 139.152C14.956 139.441 14.326 139.586 13.598 139.586C12.8887 139.586 12.268 139.441 11.736 139.152C11.204 138.862 10.7887 138.466 10.49 137.962C10.1913 137.458 10.042 136.884 10.042 136.24C10.042 135.764 10.1213 135.339 10.28 134.966C10.4293 134.592 10.6533 134.275 10.952 134.014C11.2413 133.743 11.596 133.542 12.016 133.412C12.436 133.272 12.9073 133.202 13.43 133.202C13.5887 133.202 13.71 133.248 13.794 133.342C13.8687 133.435 13.906 133.575 13.906 133.762V138.466H13.038V134.154L13.234 134.392C12.7673 134.392 12.3707 134.462 12.044 134.602C11.7173 134.732 11.47 134.933 11.302 135.204C11.1247 135.465 11.036 135.792 11.036 136.184C11.036 136.622 11.1387 136.996 11.344 137.304C11.5493 137.602 11.834 137.831 12.198 137.99C12.562 138.148 12.9867 138.228 13.472 138.228H13.556C14.3773 138.228 14.998 138.036 15.418 137.654C15.8287 137.262 16.034 136.697 16.034 135.96C16.034 135.68 15.9967 135.386 15.922 135.078C15.8473 134.76 15.7213 134.462 15.544 134.182C15.4507 134.023 15.4087 133.883 15.418 133.762C15.4273 133.631 15.4693 133.528 15.544 133.454C15.6187 133.37 15.712 133.318 15.824 133.3C15.936 133.281 16.0527 133.3 16.174 133.356C16.286 133.412 16.3887 133.51 16.482 133.65C16.6967 133.967 16.86 134.336 16.972 134.756C17.0747 135.176 17.126 135.582 17.126 135.974ZM17.126 129.476C17.126 129.952 17.0327 130.382 16.846 130.764C16.6593 131.138 16.4073 131.432 16.09 131.646C15.7727 131.861 15.4133 131.968 15.012 131.968C14.508 131.968 14.1113 131.842 13.822 131.59C13.5233 131.329 13.3133 130.904 13.192 130.316C13.0613 129.719 12.996 128.916 12.996 127.908V127.25H13.864V127.894C13.864 128.566 13.8967 129.098 13.962 129.49C14.0273 129.882 14.1393 130.162 14.298 130.33C14.4473 130.489 14.6573 130.568 14.928 130.568C15.2827 130.568 15.572 130.447 15.796 130.204C16.0107 129.962 16.118 129.626 16.118 129.196C16.118 128.851 16.0387 128.548 15.88 128.286C15.712 128.025 15.488 127.82 15.208 127.67C14.928 127.512 14.606 127.432 14.242 127.432H12.632C12.1 127.432 11.7173 127.544 11.484 127.768C11.2507 127.992 11.134 128.361 11.134 128.874C11.134 129.173 11.1713 129.486 11.246 129.812C11.3207 130.13 11.4467 130.461 11.624 130.806C11.6987 130.965 11.722 131.1 11.694 131.212C11.666 131.324 11.6053 131.413 11.512 131.478C11.4093 131.544 11.302 131.581 11.19 131.59C11.0687 131.59 10.952 131.562 10.84 131.506C10.728 131.441 10.644 131.334 10.588 131.184C10.392 130.774 10.252 130.368 10.168 129.966C10.084 129.565 10.042 129.187 10.042 128.832C10.042 128.207 10.14 127.694 10.336 127.292C10.532 126.882 10.8307 126.578 11.232 126.382C11.6333 126.186 12.1513 126.088 12.786 126.088H16.384C16.608 126.088 16.7853 126.144 16.916 126.256C17.0373 126.368 17.098 126.532 17.098 126.746C17.098 126.952 17.0373 127.115 16.916 127.236C16.7853 127.358 16.608 127.418 16.384 127.418H15.474V127.292C15.8193 127.367 16.118 127.507 16.37 127.712C16.6127 127.908 16.7993 128.156 16.93 128.454C17.0607 128.753 17.126 129.094 17.126 129.476ZM17.098 123.427C17.098 123.66 17.0373 123.837 16.916 123.959C16.7853 124.08 16.608 124.141 16.384 124.141H10.784C10.5507 124.141 10.3733 124.08 10.252 123.959C10.1307 123.837 10.07 123.669 10.07 123.455C10.07 123.231 10.1307 123.063 10.252 122.951C10.3733 122.829 10.5507 122.769 10.784 122.769H11.806V122.909C11.246 122.759 10.8213 122.484 10.532 122.083C10.2427 121.681 10.0747 121.168 10.028 120.543C10.0187 120.375 10.0607 120.244 10.154 120.151C10.2473 120.048 10.392 119.992 10.588 119.983C10.784 119.964 10.9427 120.006 11.064 120.109C11.176 120.211 11.2413 120.37 11.26 120.585L11.288 120.851C11.344 121.457 11.5353 121.919 11.862 122.237C12.1887 122.554 12.6367 122.713 13.206 122.713H16.384C16.608 122.713 16.7853 122.773 16.916 122.895C17.0373 123.007 17.098 123.184 17.098 123.427ZM17.098 118.218C17.098 118.442 17.0373 118.615 16.916 118.736C16.7853 118.857 16.608 118.918 16.384 118.918H10.784C10.5507 118.918 10.3733 118.857 10.252 118.736C10.1307 118.615 10.07 118.447 10.07 118.232C10.07 118.008 10.1307 117.84 10.252 117.728C10.3733 117.607 10.5507 117.546 10.784 117.546H11.876L11.624 117.7C11.1013 117.495 10.7093 117.173 10.448 116.734C10.1773 116.295 10.042 115.791 10.042 115.222C10.042 114.681 10.1447 114.233 10.35 113.878C10.546 113.514 10.8493 113.243 11.26 113.066C11.6613 112.889 12.17 112.8 12.786 112.8H16.384C16.608 112.8 16.7853 112.861 16.916 112.982C17.0373 113.103 17.098 113.276 17.098 113.5C17.098 113.733 17.0373 113.911 16.916 114.032C16.7853 114.153 16.608 114.214 16.384 114.214H12.87C12.282 114.214 11.8527 114.331 11.582 114.564C11.3113 114.788 11.176 115.143 11.176 115.628C11.176 116.197 11.3533 116.655 11.708 117C12.0627 117.336 12.5387 117.504 13.136 117.504H16.384C16.86 117.504 17.098 117.742 17.098 118.218ZM17.084 110.152C17.084 110.376 17.0187 110.548 16.888 110.67C16.748 110.791 16.5567 110.852 16.314 110.852H10.854C10.6113 110.852 10.4247 110.791 10.294 110.67C10.1633 110.548 10.098 110.376 10.098 110.152C10.098 109.928 10.1633 109.755 10.294 109.634C10.4247 109.503 10.6113 109.438 10.854 109.438H16.314C16.5567 109.438 16.748 109.498 16.888 109.62C17.0187 109.741 17.084 109.918 17.084 110.152ZM8.642 110.152C8.642 110.432 8.572 110.651 8.432 110.81C8.292 110.959 8.096 111.034 7.844 111.034C7.58267 111.034 7.38667 110.959 7.256 110.81C7.116 110.651 7.046 110.432 7.046 110.152C7.046 109.872 7.116 109.657 7.256 109.508C7.38667 109.349 7.58267 109.27 7.844 109.27C8.096 109.27 8.292 109.349 8.432 109.508C8.572 109.657 8.642 109.872 8.642 110.152ZM17.098 106.747C17.098 106.971 17.0373 107.144 16.916 107.265C16.7853 107.387 16.608 107.447 16.384 107.447H10.784C10.5507 107.447 10.3733 107.387 10.252 107.265C10.1307 107.144 10.07 106.976 10.07 106.761C10.07 106.537 10.1307 106.369 10.252 106.257C10.3733 106.136 10.5507 106.075 10.784 106.075H11.876L11.624 106.229C11.1013 106.024 10.7093 105.702 10.448 105.263C10.1773 104.825 10.042 104.321 10.042 103.751C10.042 103.21 10.1447 102.762 10.35 102.407C10.546 102.043 10.8493 101.773 11.26 101.595C11.6613 101.418 12.17 101.329 12.786 101.329H16.384C16.608 101.329 16.7853 101.39 16.916 101.511C17.0373 101.633 17.098 101.805 17.098 102.029C17.098 102.263 17.0373 102.44 16.916 102.561C16.7853 102.683 16.608 102.743 16.384 102.743H12.87C12.282 102.743 11.8527 102.86 11.582 103.093C11.3113 103.317 11.176 103.672 11.176 104.157C11.176 104.727 11.3533 105.184 11.708 105.529C12.0627 105.865 12.5387 106.033 13.136 106.033H16.384C16.86 106.033 17.098 106.271 17.098 106.747ZM19.646 96.287C19.646 96.791 19.5947 97.281 19.492 97.757C19.3893 98.2237 19.2213 98.6483 18.988 99.031C18.9133 99.171 18.82 99.2643 18.708 99.311C18.6053 99.3577 18.498 99.3717 18.386 99.353C18.274 99.325 18.176 99.2737 18.092 99.199C18.008 99.1243 17.952 99.0357 17.924 98.933C17.896 98.821 17.9147 98.7043 17.98 98.583C18.204 98.1723 18.3533 97.785 18.428 97.421C18.512 97.0477 18.554 96.7023 18.554 96.385C18.554 95.7317 18.386 95.2417 18.05 94.915C17.7233 94.5883 17.238 94.425 16.594 94.425H15.166V94.299C15.6793 94.439 16.0853 94.733 16.384 95.181C16.6827 95.629 16.832 96.147 16.832 96.735C16.832 97.351 16.692 97.8877 16.412 98.345C16.1227 98.8023 15.726 99.157 15.222 99.409C14.7087 99.661 14.1113 99.787 13.43 99.787C12.9167 99.787 12.4547 99.717 12.044 99.577C11.6333 99.4277 11.2787 99.2223 10.98 98.961C10.6813 98.6903 10.4527 98.3683 10.294 97.995C10.126 97.6123 10.042 97.1923 10.042 96.735C10.042 96.1377 10.1913 95.6197 10.49 95.181C10.7887 94.733 11.1947 94.4437 11.708 94.313L11.946 94.453H10.784C10.5507 94.453 10.3733 94.3923 10.252 94.271C10.1307 94.1403 10.07 93.9677 10.07 93.753C10.07 93.529 10.1307 93.3563 10.252 93.235C10.3733 93.1137 10.5507 93.053 10.784 93.053H16.426C17.49 93.053 18.2927 93.3283 18.834 93.879C19.3753 94.4297 19.646 95.2323 19.646 96.287ZM15.726 96.399C15.726 95.9883 15.6327 95.6383 15.446 95.349C15.2593 95.0597 14.9933 94.8357 14.648 94.677C14.3027 94.5183 13.8967 94.439 13.43 94.439C12.73 94.439 12.1747 94.6163 11.764 94.971C11.3533 95.3163 11.148 95.7923 11.148 96.399C11.148 96.8003 11.2413 97.1457 11.428 97.435C11.6147 97.7243 11.8807 97.953 12.226 98.121C12.562 98.2797 12.9633 98.359 13.43 98.359C14.1393 98.359 14.6993 98.1817 15.11 97.827C15.5207 97.4723 15.726 96.9963 15.726 96.399ZM17.098 86.4951C17.098 86.7284 17.0327 86.9104 16.902 87.0411C16.7713 87.1624 16.5893 87.2231 16.356 87.2231H7.774C7.53133 87.2231 7.34933 87.1624 7.228 87.0411C7.09733 86.9104 7.032 86.7284 7.032 86.4951C7.032 86.2618 7.09733 86.0844 7.228 85.9631C7.34933 85.8324 7.53133 85.7671 7.774 85.7671H11.386V80.2371H7.774C7.53133 80.2371 7.34933 80.1764 7.228 80.0551C7.09733 79.9244 7.032 79.7424 7.032 79.5091C7.032 79.2758 7.09733 79.0984 7.228 78.9771C7.34933 78.8558 7.53133 78.7951 7.774 78.7951H16.356C16.5893 78.7951 16.7713 78.8558 16.902 78.9771C17.0327 79.0984 17.098 79.2758 17.098 79.5091C17.098 79.7424 17.0327 79.9244 16.902 80.0551C16.7713 80.1764 16.5893 80.2371 16.356 80.2371H12.604V85.7671H16.356C16.5893 85.7671 16.7713 85.8278 16.902 85.9491C17.0327 86.0704 17.098 86.2524 17.098 86.4951ZM17.126 73.6767C17.126 74.3673 16.9813 74.9647 16.692 75.4687C16.4027 75.9633 15.992 76.3507 15.46 76.6307C14.928 76.9107 14.3027 77.0507 13.584 77.0507C13.0333 77.0507 12.5433 76.9713 12.114 76.8127C11.6847 76.654 11.316 76.43 11.008 76.1407C10.6907 75.842 10.4527 75.4873 10.294 75.0767C10.126 74.6567 10.042 74.19 10.042 73.6767C10.042 72.9953 10.1867 72.4073 10.476 71.9127C10.7653 71.4087 11.176 71.0167 11.708 70.7367C12.2307 70.4567 12.856 70.3167 13.584 70.3167C14.1253 70.3167 14.6153 70.396 15.054 70.5547C15.4927 70.7133 15.866 70.942 16.174 71.2407C16.482 71.53 16.72 71.8847 16.888 72.3047C17.0467 72.7153 17.126 73.1727 17.126 73.6767ZM16.034 73.6767C16.034 73.294 15.9407 72.958 15.754 72.6687C15.5673 72.3793 15.292 72.1553 14.928 71.9967C14.564 71.8287 14.116 71.7447 13.584 71.7447C12.7813 71.7447 12.1747 71.922 11.764 72.2767C11.3533 72.6313 11.148 73.098 11.148 73.6767C11.148 74.0687 11.2413 74.4093 11.428 74.6987C11.6053 74.988 11.876 75.2167 12.24 75.3847C12.604 75.5433 13.052 75.6227 13.584 75.6227C14.3773 75.6227 14.984 75.4453 15.404 75.0907C15.824 74.736 16.034 74.2647 16.034 73.6767ZM17.126 66.2927C17.126 66.8433 17.0233 67.3053 16.818 67.6787C16.6127 68.0427 16.3093 68.318 15.908 68.5047C15.4973 68.682 14.984 68.7707 14.368 68.7707H10.784C10.5413 68.7707 10.364 68.71 10.252 68.5887C10.1307 68.4673 10.07 68.2947 10.07 68.0707C10.07 67.8467 10.1307 67.674 10.252 67.5527C10.364 67.422 10.5413 67.3567 10.784 67.3567H14.382C14.9327 67.3567 15.3387 67.2447 15.6 67.0207C15.8613 66.7967 15.992 66.442 15.992 65.9567C15.992 65.4247 15.8147 64.9953 15.46 64.6687C15.096 64.3327 14.62 64.1647 14.032 64.1647H10.784C10.5413 64.1647 10.364 64.104 10.252 63.9827C10.1307 63.8613 10.07 63.684 10.07 63.4507C10.07 63.2267 10.1307 63.054 10.252 62.9327C10.364 62.8113 10.5413 62.7507 10.784 62.7507H16.384C16.86 62.7507 17.098 62.9793 17.098 63.4367C17.098 63.6513 17.0373 63.8193 16.916 63.9407C16.7853 64.062 16.608 64.1227 16.384 64.1227H15.194L15.502 63.9407C16.0247 64.1273 16.426 64.426 16.706 64.8367C16.986 65.2473 17.126 65.7327 17.126 66.2927ZM17.098 60.044C17.098 60.2773 17.0373 60.4546 16.916 60.576C16.7853 60.6973 16.608 60.758 16.384 60.758H10.784C10.5507 60.758 10.3733 60.6973 10.252 60.576C10.1307 60.4546 10.07 60.2866 10.07 60.072C10.07 59.848 10.1307 59.68 10.252 59.568C10.3733 59.4466 10.5507 59.386 10.784 59.386H11.806V59.526C11.246 59.3766 10.8213 59.1013 10.532 58.7C10.2427 58.2986 10.0747 57.7853 10.028 57.16C10.0187 56.992 10.0607 56.8613 10.154 56.768C10.2473 56.6653 10.392 56.6093 10.588 56.6C10.784 56.5813 10.9427 56.6233 11.064 56.726C11.176 56.8286 11.2413 56.9873 11.26 57.202L11.288 57.468C11.344 58.0746 11.5353 58.5366 11.862 58.854C12.1887 59.1713 12.6367 59.33 13.206 59.33H16.384C16.608 59.33 16.7853 59.3906 16.916 59.512C17.0373 59.624 17.098 59.8013 17.098 60.044ZM17.126 53.2097C17.126 53.6203 17.0793 54.045 16.986 54.4837C16.8927 54.913 16.734 55.3097 16.51 55.6737C16.426 55.795 16.3327 55.879 16.23 55.9257C16.1273 55.9723 16.0247 55.991 15.922 55.9817C15.81 55.963 15.7167 55.921 15.642 55.8557C15.558 55.781 15.5067 55.6923 15.488 55.5897C15.4693 55.4777 15.4927 55.361 15.558 55.2397C15.7633 54.8757 15.908 54.5257 15.992 54.1897C16.0667 53.8537 16.104 53.5223 16.104 53.1957C16.104 52.701 16.0153 52.3277 15.838 52.0757C15.6607 51.8237 15.4227 51.6977 15.124 51.6977C14.8813 51.6977 14.6947 51.7817 14.564 51.9497C14.424 52.1177 14.3167 52.3697 14.242 52.7057L13.976 54.0357C13.8547 54.6143 13.64 55.053 13.332 55.3517C13.024 55.6503 12.632 55.7997 12.156 55.7997C11.7267 55.7997 11.3533 55.683 11.036 55.4497C10.7187 55.2163 10.476 54.8897 10.308 54.4697C10.1307 54.0497 10.042 53.5643 10.042 53.0137C10.042 52.603 10.0933 52.2157 10.196 51.8517C10.2987 51.4877 10.4527 51.1517 10.658 50.8437C10.7233 50.7223 10.812 50.643 10.924 50.6057C11.0267 50.5683 11.1293 50.5637 11.232 50.5917C11.3347 50.6103 11.428 50.657 11.512 50.7317C11.5867 50.8063 11.6333 50.8997 11.652 51.0117C11.6613 51.1143 11.6333 51.231 11.568 51.3617C11.3907 51.6417 11.2647 51.9217 11.19 52.2017C11.1153 52.4723 11.078 52.743 11.078 53.0137C11.078 53.5083 11.1713 53.8817 11.358 54.1337C11.5353 54.3763 11.778 54.4977 12.086 54.4977C12.3193 54.4977 12.5107 54.423 12.66 54.2737C12.8093 54.1243 12.9167 53.891 12.982 53.5737L13.248 52.2437C13.3693 51.637 13.5747 51.1797 13.864 50.8717C14.1533 50.5543 14.5453 50.3957 15.04 50.3957C15.684 50.3957 16.1927 50.6523 16.566 51.1657C16.9393 51.679 17.126 52.3603 17.126 53.2097Z" fill="#003467"/>
<path d="M27.968 13.3661C27.448 13.3661 26.972 13.2581 26.54 13.0421C26.116 12.8181 25.776 12.5221 25.52 12.1541C25.264 11.7861 25.136 11.3781 25.136 10.9301C25.136 10.6821 25.168 10.4501 25.232 10.2341C25.304 10.0101 25.408 9.80608 25.544 9.62208C25.688 9.43808 25.86 9.27008 26.06 9.11808C26.26 8.96608 26.492 8.83008 26.756 8.71008L26.684 8.96208C26.476 8.88208 26.288 8.78608 26.12 8.67408C25.96 8.55408 25.82 8.41808 25.7 8.26608C25.58 8.11408 25.488 7.95008 25.424 7.77408C25.368 7.59808 25.34 7.41408 25.34 7.22208C25.34 6.79808 25.456 6.41408 25.688 6.07008C25.928 5.72608 26.244 5.45008 26.636 5.24208C27.036 5.03408 27.48 4.93008 27.968 4.93008C28.456 4.93008 28.896 5.03408 29.288 5.24208C29.688 5.45008 30.004 5.72608 30.236 6.07008C30.476 6.41408 30.596 6.79808 30.596 7.22208C30.596 7.41408 30.564 7.59808 30.5 7.77408C30.444 7.95008 30.36 8.11008 30.248 8.25408C30.136 8.39808 29.992 8.53008 29.816 8.65008C29.648 8.77008 29.456 8.87408 29.24 8.96208L29.204 8.75808C29.444 8.85408 29.66 8.97808 29.852 9.13008C30.052 9.28208 30.224 9.45408 30.368 9.64608C30.512 9.83808 30.62 10.0421 30.692 10.2581C30.772 10.4741 30.812 10.6981 30.812 10.9301C30.812 11.3861 30.684 11.7981 30.428 12.1661C30.172 12.5341 29.828 12.8261 29.396 13.0421C28.972 13.2581 28.496 13.3661 27.968 13.3661ZM27.968 12.1661C28.264 12.1661 28.528 12.1101 28.76 11.9981C29 11.8861 29.188 11.7341 29.324 11.5421C29.46 11.3501 29.528 11.1301 29.528 10.8821C29.528 10.6181 29.46 10.3861 29.324 10.1861C29.188 9.97808 29 9.81408 28.76 9.69408C28.528 9.57408 28.264 9.51408 27.968 9.51408C27.672 9.51408 27.408 9.57408 27.176 9.69408C26.944 9.81408 26.76 9.97808 26.624 10.1861C26.488 10.3861 26.42 10.6181 26.42 10.8821C26.42 11.1221 26.488 11.3381 26.624 11.5301C26.76 11.7221 26.944 11.8781 27.176 11.9981C27.408 12.1101 27.672 12.1661 27.968 12.1661ZM27.968 8.36208C28.224 8.36208 28.452 8.31408 28.652 8.21808C28.86 8.12208 29.02 7.99408 29.132 7.83408C29.252 7.66608 29.312 7.47408 29.312 7.25808C29.312 7.04208 29.252 6.85008 29.132 6.68208C29.02 6.51408 28.86 6.38208 28.652 6.28608C28.452 6.18208 28.224 6.13008 27.968 6.13008C27.712 6.13008 27.48 6.18208 27.272 6.28608C27.072 6.38208 26.912 6.51408 26.792 6.68208C26.68 6.85008 26.624 7.04208 26.624 7.25808C26.624 7.47408 26.68 7.66608 26.792 7.83408C26.912 7.99408 27.072 8.12208 27.272 8.21808C27.48 8.31408 27.712 8.36208 27.968 8.36208Z" fill="#003467"/>
<line x1="39.5" y1="7.83008" x2="456.5" y2="7.83008" stroke="#003467" stroke-dasharray="2 2"/>
<path d="M27.896 56.3301C27.48 56.3301 27.092 56.2581 26.732 56.1141C26.38 55.9621 26.072 55.7541 25.808 55.4901C25.552 55.2261 25.348 54.9141 25.196 54.5541C25.052 54.1941 24.98 53.7981 24.98 53.3661C24.98 53.1501 25.008 52.9101 25.064 52.6461C25.128 52.3741 25.22 52.0781 25.34 51.7581C25.468 51.4381 25.62 51.1021 25.796 50.7501C25.972 50.3901 26.176 50.0181 26.408 49.6341L27.5 47.7861H28.76L28.808 47.9061L27.488 50.1261C27.248 50.5341 27.032 50.9221 26.84 51.2901C26.656 51.6581 26.5 52.0061 26.372 52.3341C26.244 52.6541 26.148 52.9461 26.084 53.2101L25.796 51.9741C25.948 51.7261 26.112 51.5101 26.288 51.3261C26.464 51.1341 26.652 50.9741 26.852 50.8461C27.06 50.7181 27.276 50.6221 27.5 50.5581C27.724 50.4941 27.956 50.4621 28.196 50.4621C28.66 50.4621 29.084 50.5901 29.468 50.8461C29.86 51.0941 30.172 51.4261 30.404 51.8421C30.644 52.2581 30.764 52.7141 30.764 53.2101C30.764 53.8101 30.64 54.3461 30.392 54.8181C30.152 55.2821 29.816 55.6501 29.384 55.9221C28.952 56.1941 28.456 56.3301 27.896 56.3301ZM27.896 55.1301C28.208 55.1301 28.484 55.0581 28.724 54.9141C28.972 54.7621 29.164 54.5541 29.3 54.2901C29.444 54.0181 29.516 53.7101 29.516 53.3661C29.516 53.0701 29.444 52.7941 29.3 52.5381C29.156 52.2741 28.964 52.0621 28.724 51.9021C28.484 51.7421 28.216 51.6621 27.92 51.6621C27.592 51.6621 27.3 51.7381 27.044 51.8901C26.788 52.0421 26.588 52.2461 26.444 52.5021C26.3 52.7581 26.228 53.0421 26.228 53.3541C26.228 53.6901 26.3 53.9941 26.444 54.2661C26.588 54.5301 26.784 54.7421 27.032 54.9021C27.28 55.0541 27.568 55.1301 27.896 55.1301Z" fill="#003467"/>
<line x1="39.5" y1="50.8301" x2="456.5" y2="50.8301" stroke="#003467" stroke-dasharray="2 2"/>
<path d="M28.224 99.3301V92.5621L28.524 92.6341L25.764 96.0061L25.716 95.8621H30.936V97.0501H24.912L24.36 95.9701L28.476 90.9301H29.472V99.3301H28.224Z" fill="#003467"/>
<line x1="40" y1="93.8301" x2="457" y2="93.8301" stroke="#003467" stroke-dasharray="2 2"/>
<path d="M25.616 142.33L25.22 141.346L27.788 138.454C27.924 138.31 28.064 138.146 28.208 137.962C28.36 137.77 28.504 137.574 28.64 137.374C28.776 137.174 28.884 136.978 28.964 136.786C29.052 136.586 29.096 136.398 29.096 136.222C29.096 135.966 29.044 135.75 28.94 135.574C28.844 135.39 28.7 135.25 28.508 135.154C28.324 135.058 28.1 135.01 27.836 135.01C27.604 135.01 27.376 135.078 27.152 135.214C26.928 135.35 26.724 135.542 26.54 135.79C26.356 136.038 26.212 136.326 26.108 136.654L25.112 136.03C25.248 135.566 25.452 135.17 25.724 134.842C26.004 134.506 26.336 134.25 26.72 134.074C27.112 133.898 27.536 133.81 27.992 133.81C28.464 133.81 28.884 133.91 29.252 134.11C29.62 134.302 29.908 134.574 30.116 134.926C30.324 135.27 30.428 135.67 30.428 136.126C30.428 136.31 30.408 136.498 30.368 136.69C30.328 136.882 30.264 137.082 30.176 137.29C30.088 137.49 29.976 137.702 29.84 137.926C29.704 138.142 29.54 138.37 29.348 138.61C29.164 138.85 28.952 139.102 28.712 139.366L26.804 141.442L26.564 141.082H30.692V142.33H25.616Z" fill="#003467"/>
<line x1="39.5" y1="136.83" x2="456.5" y2="136.83" stroke="#003467" stroke-dasharray="2 2"/>
<path d="M43.9404 139.219C43.9404 135.353 47.0744 132.219 50.9404 132.219H80.9404C84.8064 132.219 87.9404 135.353 87.9404 139.219V172.219H43.9404V139.219Z" fill="#98C1D9"/>
<path d="M103.94 121.219C103.94 117.353 107.074 114.219 110.94 114.219H140.94C144.806 114.219 147.94 117.353 147.94 121.219V172.219H103.94V121.219Z" fill="#98C1D9"/>
<path d="M163.94 165.219C163.94 161.353 167.074 158.219 170.94 158.219H200.94C204.806 158.219 207.94 161.353 207.94 165.219V172.219H163.94V165.219Z" fill="#98C1D9"/>
<path d="M223.94 165.219C223.94 161.353 227.074 158.219 230.94 158.219H260.94C264.806 158.219 267.94 161.353 267.94 165.219V172.219H223.94V165.219Z" fill="#98C1D9"/>
<path d="M283.94 111.219C283.94 107.353 287.074 104.219 290.94 104.219H320.94C324.806 104.219 327.94 107.353 327.94 111.219V172.219H283.94V111.219Z" fill="#98C1D9"/>
<line x1="32" y1="171.83" x2="449" y2="171.83" stroke="#003467"/>
<path d="M44.438 189.456C44.0087 189.456 43.5887 189.423 43.178 189.358C42.7673 189.293 42.38 189.195 42.016 189.064C41.652 188.924 41.3253 188.756 41.036 188.56C40.896 188.457 40.798 188.341 40.742 188.21C40.6953 188.079 40.6813 187.953 40.7 187.832C40.728 187.701 40.784 187.589 40.868 187.496C40.952 187.403 41.0547 187.347 41.176 187.328C41.2973 187.3 41.4327 187.337 41.582 187.44C42.002 187.711 42.4453 187.911 42.912 188.042C43.3787 188.163 43.8873 188.224 44.438 188.224C45.2313 188.224 45.8147 188.084 46.188 187.804C46.5707 187.515 46.762 187.141 46.762 186.684C46.762 186.311 46.6267 186.017 46.356 185.802C46.0853 185.578 45.6327 185.401 44.998 185.27L43.5 184.962C42.6133 184.775 41.9507 184.467 41.512 184.038C41.0827 183.609 40.868 183.03 40.868 182.302C40.868 181.863 40.9567 181.462 41.134 181.098C41.3207 180.734 41.5773 180.421 41.904 180.16C42.2307 179.889 42.6227 179.684 43.08 179.544C43.5373 179.404 44.0367 179.334 44.578 179.334C45.1567 179.334 45.698 179.409 46.202 179.558C46.7153 179.707 47.1727 179.936 47.574 180.244C47.6953 180.328 47.7747 180.435 47.812 180.566C47.8587 180.687 47.868 180.809 47.84 180.93C47.8213 181.051 47.77 181.154 47.686 181.238C47.602 181.322 47.4947 181.373 47.364 181.392C47.2333 181.401 47.0887 181.355 46.93 181.252C46.566 181.009 46.1927 180.837 45.81 180.734C45.4367 180.622 45.0213 180.566 44.564 180.566C44.1067 180.566 43.7053 180.636 43.36 180.776C43.024 180.916 42.7627 181.112 42.576 181.364C42.3987 181.616 42.31 181.915 42.31 182.26C42.31 182.652 42.436 182.965 42.688 183.198C42.94 183.431 43.36 183.609 43.948 183.73L45.432 184.038C46.3653 184.234 47.0607 184.537 47.518 184.948C47.9753 185.359 48.204 185.905 48.204 186.586C48.204 187.025 48.1153 187.421 47.938 187.776C47.7607 188.121 47.5087 188.42 47.182 188.672C46.8553 188.924 46.4587 189.12 45.992 189.26C45.5347 189.391 45.0167 189.456 44.438 189.456ZM52.139 189.456C51.5883 189.456 51.1263 189.353 50.753 189.148C50.389 188.943 50.1137 188.639 49.927 188.238C49.7497 187.827 49.661 187.314 49.661 186.698V183.114C49.661 182.871 49.7217 182.694 49.843 182.582C49.9643 182.461 50.137 182.4 50.361 182.4C50.585 182.4 50.7577 182.461 50.879 182.582C51.0097 182.694 51.075 182.871 51.075 183.114V186.712C51.075 187.263 51.187 187.669 51.411 187.93C51.635 188.191 51.9897 188.322 52.475 188.322C53.007 188.322 53.4363 188.145 53.763 187.79C54.099 187.426 54.267 186.95 54.267 186.362V183.114C54.267 182.871 54.3277 182.694 54.449 182.582C54.5703 182.461 54.7477 182.4 54.981 182.4C55.205 182.4 55.3777 182.461 55.499 182.582C55.6203 182.694 55.681 182.871 55.681 183.114V188.714C55.681 189.19 55.4523 189.428 54.995 189.428C54.7803 189.428 54.6123 189.367 54.491 189.246C54.3697 189.115 54.309 188.938 54.309 188.714V187.524L54.491 187.832C54.3043 188.355 54.0057 188.756 53.595 189.036C53.1843 189.316 52.699 189.456 52.139 189.456ZM58.3737 189.428C58.1497 189.428 57.977 189.367 57.8557 189.246C57.7344 189.115 57.6737 188.938 57.6737 188.714V183.114C57.6737 182.881 57.7344 182.703 57.8557 182.582C57.977 182.461 58.145 182.4 58.3597 182.4C58.5837 182.4 58.7517 182.461 58.8637 182.582C58.985 182.703 59.0457 182.881 59.0457 183.114V184.206L58.8917 183.954C59.097 183.431 59.419 183.039 59.8577 182.778C60.2964 182.507 60.8004 182.372 61.3697 182.372C61.911 182.372 62.359 182.475 62.7137 182.68C63.0777 182.876 63.3484 183.179 63.5257 183.59C63.703 183.991 63.7917 184.5 63.7917 185.116V188.714C63.7917 188.938 63.731 189.115 63.6097 189.246C63.4884 189.367 63.3157 189.428 63.0917 189.428C62.8584 189.428 62.681 189.367 62.5597 189.246C62.4384 189.115 62.3777 188.938 62.3777 188.714V185.2C62.3777 184.612 62.261 184.183 62.0277 183.912C61.8037 183.641 61.449 183.506 60.9637 183.506C60.3944 183.506 59.937 183.683 59.5917 184.038C59.2557 184.393 59.0877 184.869 59.0877 185.466V188.714C59.0877 189.19 58.8497 189.428 58.3737 189.428Z" fill="#003467"/>
<path d="M102.848 189.428C102.633 189.428 102.465 189.367 102.344 189.246C102.232 189.125 102.176 188.957 102.176 188.742V180.048C102.176 179.824 102.237 179.656 102.358 179.544C102.479 179.423 102.643 179.362 102.848 179.362C103.044 179.362 103.193 179.399 103.296 179.474C103.408 179.539 103.511 179.661 103.604 179.838L107.272 186.684H106.838L110.492 179.838C110.585 179.661 110.683 179.539 110.786 179.474C110.889 179.399 111.038 179.362 111.234 179.362C111.439 179.362 111.598 179.423 111.71 179.544C111.822 179.656 111.878 179.824 111.878 180.048V188.742C111.878 188.957 111.822 189.125 111.71 189.246C111.607 189.367 111.449 189.428 111.234 189.428C111.019 189.428 110.856 189.367 110.744 189.246C110.632 189.125 110.576 188.957 110.576 188.742V181.518H110.884L107.636 187.524C107.561 187.664 107.482 187.767 107.398 187.832C107.314 187.897 107.197 187.93 107.048 187.93C106.899 187.93 106.777 187.897 106.684 187.832C106.591 187.757 106.507 187.655 106.432 187.524L103.156 181.504H103.492V188.742C103.492 188.957 103.436 189.125 103.324 189.246C103.221 189.367 103.063 189.428 102.848 189.428ZM117.021 189.456C116.33 189.456 115.733 189.311 115.229 189.022C114.734 188.733 114.347 188.322 114.067 187.79C113.787 187.258 113.647 186.633 113.647 185.914C113.647 185.363 113.726 184.873 113.885 184.444C114.043 184.015 114.267 183.646 114.557 183.338C114.855 183.021 115.21 182.783 115.621 182.624C116.041 182.456 116.507 182.372 117.021 182.372C117.702 182.372 118.29 182.517 118.785 182.806C119.289 183.095 119.681 183.506 119.961 184.038C120.241 184.561 120.381 185.186 120.381 185.914C120.381 186.455 120.301 186.945 120.143 187.384C119.984 187.823 119.755 188.196 119.457 188.504C119.167 188.812 118.813 189.05 118.393 189.218C117.982 189.377 117.525 189.456 117.021 189.456ZM117.021 188.364C117.403 188.364 117.739 188.271 118.029 188.084C118.318 187.897 118.542 187.622 118.701 187.258C118.869 186.894 118.953 186.446 118.953 185.914C118.953 185.111 118.775 184.505 118.421 184.094C118.066 183.683 117.599 183.478 117.021 183.478C116.629 183.478 116.288 183.571 115.999 183.758C115.709 183.935 115.481 184.206 115.313 184.57C115.154 184.934 115.075 185.382 115.075 185.914C115.075 186.707 115.252 187.314 115.607 187.734C115.961 188.154 116.433 188.364 117.021 188.364ZM122.669 189.428C122.445 189.428 122.272 189.367 122.151 189.246C122.029 189.115 121.969 188.938 121.969 188.714V183.114C121.969 182.881 122.029 182.703 122.151 182.582C122.272 182.461 122.44 182.4 122.655 182.4C122.879 182.4 123.047 182.461 123.159 182.582C123.28 182.703 123.341 182.881 123.341 183.114V184.206L123.187 183.954C123.392 183.431 123.714 183.039 124.153 182.778C124.591 182.507 125.095 182.372 125.665 182.372C126.206 182.372 126.654 182.475 127.009 182.68C127.373 182.876 127.643 183.179 127.821 183.59C127.998 183.991 128.087 184.5 128.087 185.116V188.714C128.087 188.938 128.026 189.115 127.905 189.246C127.783 189.367 127.611 189.428 127.387 189.428C127.153 189.428 126.976 189.367 126.855 189.246C126.733 189.115 126.673 188.938 126.673 188.714V185.2C126.673 184.612 126.556 184.183 126.323 183.912C126.099 183.641 125.744 183.506 125.259 183.506C124.689 183.506 124.232 183.683 123.887 184.038C123.551 184.393 123.383 184.869 123.383 185.466V188.714C123.383 189.19 123.145 189.428 122.669 189.428Z" fill="#003467"/>
<path d="M170.284 189.428C170.051 189.428 169.869 189.363 169.738 189.232C169.617 189.101 169.556 188.919 169.556 188.686V180.678H166.588C166.392 180.678 166.238 180.627 166.126 180.524C166.014 180.412 165.958 180.258 165.958 180.062C165.958 179.866 166.014 179.717 166.126 179.614C166.238 179.511 166.392 179.46 166.588 179.46H173.966C174.171 179.46 174.33 179.511 174.442 179.614C174.554 179.717 174.61 179.866 174.61 180.062C174.61 180.258 174.554 180.412 174.442 180.524C174.33 180.627 174.171 180.678 173.966 180.678H170.998V188.686C170.998 188.919 170.937 189.101 170.816 189.232C170.704 189.363 170.527 189.428 170.284 189.428ZM176.95 189.456C176.399 189.456 175.937 189.353 175.564 189.148C175.2 188.943 174.924 188.639 174.738 188.238C174.56 187.827 174.472 187.314 174.472 186.698V183.114C174.472 182.871 174.532 182.694 174.654 182.582C174.775 182.461 174.948 182.4 175.172 182.4C175.396 182.4 175.568 182.461 175.69 182.582C175.82 182.694 175.886 182.871 175.886 183.114V186.712C175.886 187.263 175.998 187.669 176.222 187.93C176.446 188.191 176.8 188.322 177.286 188.322C177.818 188.322 178.247 188.145 178.574 187.79C178.91 187.426 179.078 186.95 179.078 186.362V183.114C179.078 182.871 179.138 182.694 179.26 182.582C179.381 182.461 179.558 182.4 179.792 182.4C180.016 182.4 180.188 182.461 180.31 182.582C180.431 182.694 180.492 182.871 180.492 183.114V188.714C180.492 189.19 180.263 189.428 179.806 189.428C179.591 189.428 179.423 189.367 179.302 189.246C179.18 189.115 179.12 188.938 179.12 188.714V187.524L179.302 187.832C179.115 188.355 178.816 188.756 178.406 189.036C177.995 189.316 177.51 189.456 176.95 189.456ZM185.69 189.456C184.944 189.456 184.3 189.316 183.758 189.036C183.226 188.747 182.811 188.341 182.512 187.818C182.223 187.286 182.078 186.656 182.078 185.928C182.078 185.219 182.223 184.598 182.512 184.066C182.802 183.534 183.198 183.119 183.702 182.82C184.206 182.521 184.78 182.372 185.424 182.372C185.9 182.372 186.325 182.451 186.698 182.61C187.072 182.759 187.389 182.983 187.65 183.282C187.921 183.571 188.122 183.926 188.252 184.346C188.392 184.766 188.462 185.237 188.462 185.76C188.462 185.919 188.416 186.04 188.322 186.124C188.229 186.199 188.089 186.236 187.902 186.236H183.198V185.368H187.51L187.272 185.564C187.272 185.097 187.202 184.701 187.062 184.374C186.932 184.047 186.731 183.8 186.46 183.632C186.199 183.455 185.872 183.366 185.48 183.366C185.042 183.366 184.668 183.469 184.36 183.674C184.062 183.879 183.833 184.164 183.674 184.528C183.516 184.892 183.436 185.317 183.436 185.802V185.886C183.436 186.707 183.628 187.328 184.01 187.748C184.402 188.159 184.967 188.364 185.704 188.364C185.984 188.364 186.278 188.327 186.586 188.252C186.904 188.177 187.202 188.051 187.482 187.874C187.641 187.781 187.781 187.739 187.902 187.748C188.033 187.757 188.136 187.799 188.21 187.874C188.294 187.949 188.346 188.042 188.364 188.154C188.383 188.266 188.364 188.383 188.308 188.504C188.252 188.616 188.154 188.719 188.014 188.812C187.697 189.027 187.328 189.19 186.908 189.302C186.488 189.405 186.082 189.456 185.69 189.456ZM192.398 189.456C191.987 189.456 191.562 189.409 191.124 189.316C190.694 189.223 190.298 189.064 189.934 188.84C189.812 188.756 189.728 188.663 189.682 188.56C189.635 188.457 189.616 188.355 189.626 188.252C189.644 188.14 189.686 188.047 189.752 187.972C189.826 187.888 189.915 187.837 190.018 187.818C190.13 187.799 190.246 187.823 190.368 187.888C190.732 188.093 191.082 188.238 191.418 188.322C191.754 188.397 192.085 188.434 192.412 188.434C192.906 188.434 193.28 188.345 193.532 188.168C193.784 187.991 193.91 187.753 193.91 187.454C193.91 187.211 193.826 187.025 193.658 186.894C193.49 186.754 193.238 186.647 192.902 186.572L191.572 186.306C190.993 186.185 190.554 185.97 190.256 185.662C189.957 185.354 189.808 184.962 189.808 184.486C189.808 184.057 189.924 183.683 190.158 183.366C190.391 183.049 190.718 182.806 191.138 182.638C191.558 182.461 192.043 182.372 192.594 182.372C193.004 182.372 193.392 182.423 193.756 182.526C194.12 182.629 194.456 182.783 194.764 182.988C194.885 183.053 194.964 183.142 195.002 183.254C195.039 183.357 195.044 183.459 195.016 183.562C194.997 183.665 194.95 183.758 194.876 183.842C194.801 183.917 194.708 183.963 194.596 183.982C194.493 183.991 194.376 183.963 194.246 183.898C193.966 183.721 193.686 183.595 193.406 183.52C193.135 183.445 192.864 183.408 192.594 183.408C192.099 183.408 191.726 183.501 191.474 183.688C191.231 183.865 191.11 184.108 191.11 184.416C191.11 184.649 191.184 184.841 191.334 184.99C191.483 185.139 191.716 185.247 192.034 185.312L193.364 185.578C193.97 185.699 194.428 185.905 194.736 186.194C195.053 186.483 195.212 186.875 195.212 187.37C195.212 188.014 194.955 188.523 194.442 188.896C193.928 189.269 193.247 189.456 192.398 189.456Z" fill="#003467"/>
<path d="M236.466 189.428C236.261 189.428 236.093 189.377 235.962 189.274C235.841 189.171 235.738 189.013 235.654 188.798L232.644 180.216C232.56 179.973 232.574 179.773 232.686 179.614C232.807 179.446 233.003 179.362 233.274 179.362C233.479 179.362 233.638 179.409 233.75 179.502C233.871 179.595 233.965 179.745 234.03 179.95L236.76 187.986H236.242L239.042 179.978C239.126 179.773 239.224 179.619 239.336 179.516C239.448 179.413 239.597 179.362 239.784 179.362C239.971 179.362 240.115 179.413 240.218 179.516C240.33 179.619 240.428 179.777 240.512 179.992L243.256 187.986H242.794L245.552 179.95C245.617 179.754 245.706 179.609 245.818 179.516C245.939 179.413 246.098 179.362 246.294 179.362C246.537 179.362 246.714 179.446 246.826 179.614C246.947 179.773 246.961 179.973 246.868 180.216L243.844 188.812C243.76 189.017 243.657 189.171 243.536 189.274C243.415 189.377 243.251 189.428 243.046 189.428C242.831 189.428 242.663 189.377 242.542 189.274C242.421 189.171 242.323 189.013 242.248 188.798L239.602 181.224H239.91L237.236 188.812C237.161 189.017 237.063 189.171 236.942 189.274C236.83 189.377 236.671 189.428 236.466 189.428ZM250.856 189.456C250.11 189.456 249.466 189.316 248.924 189.036C248.392 188.747 247.977 188.341 247.678 187.818C247.389 187.286 247.244 186.656 247.244 185.928C247.244 185.219 247.389 184.598 247.678 184.066C247.968 183.534 248.364 183.119 248.868 182.82C249.372 182.521 249.946 182.372 250.59 182.372C251.066 182.372 251.491 182.451 251.864 182.61C252.238 182.759 252.555 182.983 252.816 183.282C253.087 183.571 253.288 183.926 253.418 184.346C253.558 184.766 253.628 185.237 253.628 185.76C253.628 185.919 253.582 186.04 253.488 186.124C253.395 186.199 253.255 186.236 253.068 186.236H248.364V185.368H252.676L252.438 185.564C252.438 185.097 252.368 184.701 252.228 184.374C252.098 184.047 251.897 183.8 251.626 183.632C251.365 183.455 251.038 183.366 250.646 183.366C250.208 183.366 249.834 183.469 249.526 183.674C249.228 183.879 248.999 184.164 248.84 184.528C248.682 184.892 248.602 185.317 248.602 185.802V185.886C248.602 186.707 248.794 187.328 249.176 187.748C249.568 188.159 250.133 188.364 250.87 188.364C251.15 188.364 251.444 188.327 251.752 188.252C252.07 188.177 252.368 188.051 252.648 187.874C252.807 187.781 252.947 187.739 253.068 187.748C253.199 187.757 253.302 187.799 253.376 187.874C253.46 187.949 253.512 188.042 253.53 188.154C253.549 188.266 253.53 188.383 253.474 188.504C253.418 188.616 253.32 188.719 253.18 188.812C252.863 189.027 252.494 189.19 252.074 189.302C251.654 189.405 251.248 189.456 250.856 189.456ZM257.774 189.456C257.176 189.456 256.649 189.316 256.192 189.036C255.744 188.747 255.394 188.336 255.142 187.804C254.89 187.263 254.764 186.633 254.764 185.914C254.764 185.177 254.89 184.547 255.142 184.024C255.394 183.501 255.744 183.095 256.192 182.806C256.649 182.517 257.176 182.372 257.774 182.372C258.371 182.372 258.884 182.521 259.314 182.82C259.752 183.109 260.046 183.501 260.196 183.996H260.042V180.076C260.042 179.843 260.102 179.665 260.224 179.544C260.345 179.423 260.518 179.362 260.742 179.362C260.966 179.362 261.138 179.423 261.26 179.544C261.39 179.665 261.456 179.843 261.456 180.076V188.714C261.456 188.938 261.395 189.115 261.274 189.246C261.152 189.367 260.98 189.428 260.756 189.428C260.532 189.428 260.359 189.367 260.238 189.246C260.116 189.115 260.056 188.938 260.056 188.714V187.482L260.21 187.79C260.06 188.294 259.766 188.7 259.328 189.008C258.898 189.307 258.38 189.456 257.774 189.456ZM258.138 188.364C258.52 188.364 258.856 188.271 259.146 188.084C259.435 187.897 259.659 187.622 259.818 187.258C259.986 186.894 260.07 186.446 260.07 185.914C260.07 185.111 259.892 184.505 259.538 184.094C259.183 183.683 258.716 183.478 258.138 183.478C257.746 183.478 257.405 183.571 257.116 183.758C256.826 183.935 256.598 184.206 256.43 184.57C256.271 184.934 256.192 185.382 256.192 185.914C256.192 186.707 256.369 187.314 256.724 187.734C257.078 188.154 257.55 188.364 258.138 188.364Z" fill="#003467"/>
<path d="M303.284 189.428C303.051 189.428 302.869 189.363 302.738 189.232C302.617 189.101 302.556 188.919 302.556 188.686V180.678H299.588C299.392 180.678 299.238 180.627 299.126 180.524C299.014 180.412 298.958 180.258 298.958 180.062C298.958 179.866 299.014 179.717 299.126 179.614C299.238 179.511 299.392 179.46 299.588 179.46H306.966C307.171 179.46 307.33 179.511 307.442 179.614C307.554 179.717 307.61 179.866 307.61 180.062C307.61 180.258 307.554 180.412 307.442 180.524C307.33 180.627 307.171 180.678 306.966 180.678H303.998V188.686C303.998 188.919 303.937 189.101 303.816 189.232C303.704 189.363 303.527 189.428 303.284 189.428ZM309.799 189.428C309.575 189.428 309.403 189.367 309.281 189.246C309.16 189.115 309.099 188.938 309.099 188.714V180.076C309.099 179.843 309.16 179.665 309.281 179.544C309.403 179.423 309.575 179.362 309.799 179.362C310.023 179.362 310.196 179.423 310.317 179.544C310.448 179.665 310.513 179.843 310.513 180.076V183.954H310.317C310.523 183.431 310.845 183.039 311.283 182.778C311.722 182.507 312.226 182.372 312.795 182.372C313.337 182.372 313.785 182.475 314.139 182.68C314.503 182.876 314.774 183.179 314.951 183.59C315.129 183.991 315.217 184.5 315.217 185.116V188.714C315.217 188.938 315.157 189.115 315.035 189.246C314.914 189.367 314.741 189.428 314.517 189.428C314.284 189.428 314.107 189.367 313.985 189.246C313.864 189.115 313.803 188.938 313.803 188.714V185.2C313.803 184.612 313.687 184.183 313.453 183.912C313.229 183.641 312.875 183.506 312.389 183.506C311.82 183.506 311.363 183.683 311.017 184.038C310.681 184.393 310.513 184.869 310.513 185.466V188.714C310.513 189.19 310.275 189.428 309.799 189.428ZM319.602 189.456C319.051 189.456 318.589 189.353 318.216 189.148C317.852 188.943 317.577 188.639 317.39 188.238C317.213 187.827 317.124 187.314 317.124 186.698V183.114C317.124 182.871 317.185 182.694 317.306 182.582C317.427 182.461 317.6 182.4 317.824 182.4C318.048 182.4 318.221 182.461 318.342 182.582C318.473 182.694 318.538 182.871 318.538 183.114V186.712C318.538 187.263 318.65 187.669 318.874 187.93C319.098 188.191 319.453 188.322 319.938 188.322C320.47 188.322 320.899 188.145 321.226 187.79C321.562 187.426 321.73 186.95 321.73 186.362V183.114C321.73 182.871 321.791 182.694 321.912 182.582C322.033 182.461 322.211 182.4 322.444 182.4C322.668 182.4 322.841 182.461 322.962 182.582C323.083 182.694 323.144 182.871 323.144 183.114V188.714C323.144 189.19 322.915 189.428 322.458 189.428C322.243 189.428 322.075 189.367 321.954 189.246C321.833 189.115 321.772 188.938 321.772 188.714V187.524L321.954 187.832C321.767 188.355 321.469 188.756 321.058 189.036C320.647 189.316 320.162 189.456 319.602 189.456ZM325.851 189.428C325.617 189.428 325.44 189.367 325.319 189.246C325.197 189.115 325.137 188.938 325.137 188.714V183.114C325.137 182.881 325.197 182.703 325.319 182.582C325.44 182.461 325.608 182.4 325.823 182.4C326.047 182.4 326.215 182.461 326.327 182.582C326.448 182.703 326.509 182.881 326.509 183.114V184.136H326.369C326.518 183.576 326.793 183.151 327.195 182.862C327.596 182.573 328.109 182.405 328.735 182.358C328.903 182.349 329.033 182.391 329.127 182.484C329.229 182.577 329.285 182.722 329.295 182.918C329.313 183.114 329.271 183.273 329.169 183.394C329.066 183.506 328.907 183.571 328.693 183.59L328.427 183.618C327.82 183.674 327.358 183.865 327.041 184.192C326.723 184.519 326.565 184.967 326.565 185.536V188.714C326.565 188.938 326.504 189.115 326.383 189.246C326.271 189.367 326.093 189.428 325.851 189.428Z" fill="#003467"/>
<path d="M367.918 189.428C367.675 189.428 367.484 189.363 367.344 189.232C367.213 189.101 367.148 188.91 367.148 188.658V180.244C367.148 179.992 367.213 179.801 367.344 179.67C367.484 179.53 367.68 179.46 367.932 179.46H372.916C373.121 179.46 373.271 179.511 373.364 179.614C373.467 179.707 373.518 179.847 373.518 180.034C373.518 180.23 373.467 180.379 373.364 180.482C373.271 180.585 373.121 180.636 372.916 180.636H368.604V183.786H372.636C372.823 183.786 372.967 183.837 373.07 183.94C373.182 184.033 373.238 184.173 373.238 184.36C373.238 184.556 373.182 184.705 373.07 184.808C372.967 184.911 372.823 184.962 372.636 184.962H368.604V188.658C368.604 189.171 368.375 189.428 367.918 189.428ZM375.323 189.428C375.09 189.428 374.913 189.367 374.791 189.246C374.67 189.115 374.609 188.938 374.609 188.714V183.114C374.609 182.881 374.67 182.703 374.791 182.582C374.913 182.461 375.081 182.4 375.295 182.4C375.519 182.4 375.687 182.461 375.799 182.582C375.921 182.703 375.981 182.881 375.981 183.114V184.136H375.841C375.991 183.576 376.266 183.151 376.667 182.862C377.069 182.573 377.582 182.405 378.207 182.358C378.375 182.349 378.506 182.391 378.599 182.484C378.702 182.577 378.758 182.722 378.767 182.918C378.786 183.114 378.744 183.273 378.641 183.394C378.539 183.506 378.38 183.571 378.165 183.59L377.899 183.618C377.293 183.674 376.831 183.865 376.513 184.192C376.196 184.519 376.037 184.967 376.037 185.536V188.714C376.037 188.938 375.977 189.115 375.855 189.246C375.743 189.367 375.566 189.428 375.323 189.428ZM380.532 189.414C380.308 189.414 380.135 189.349 380.014 189.218C379.893 189.078 379.832 188.887 379.832 188.644V183.184C379.832 182.941 379.893 182.755 380.014 182.624C380.135 182.493 380.308 182.428 380.532 182.428C380.756 182.428 380.929 182.493 381.05 182.624C381.181 182.755 381.246 182.941 381.246 183.184V188.644C381.246 188.887 381.185 189.078 381.064 189.218C380.943 189.349 380.765 189.414 380.532 189.414ZM380.532 180.972C380.252 180.972 380.033 180.902 379.874 180.762C379.725 180.622 379.65 180.426 379.65 180.174C379.65 179.913 379.725 179.717 379.874 179.586C380.033 179.446 380.252 179.376 380.532 179.376C380.812 179.376 381.027 179.446 381.176 179.586C381.335 179.717 381.414 179.913 381.414 180.174C381.414 180.426 381.335 180.622 381.176 180.762C381.027 180.902 380.812 180.972 380.532 180.972Z" fill="#003467"/>
<path d="M423.438 189.456C423.009 189.456 422.589 189.423 422.178 189.358C421.767 189.293 421.38 189.195 421.016 189.064C420.652 188.924 420.325 188.756 420.036 188.56C419.896 188.457 419.798 188.341 419.742 188.21C419.695 188.079 419.681 187.953 419.7 187.832C419.728 187.701 419.784 187.589 419.868 187.496C419.952 187.403 420.055 187.347 420.176 187.328C420.297 187.3 420.433 187.337 420.582 187.44C421.002 187.711 421.445 187.911 421.912 188.042C422.379 188.163 422.887 188.224 423.438 188.224C424.231 188.224 424.815 188.084 425.188 187.804C425.571 187.515 425.762 187.141 425.762 186.684C425.762 186.311 425.627 186.017 425.356 185.802C425.085 185.578 424.633 185.401 423.998 185.27L422.5 184.962C421.613 184.775 420.951 184.467 420.512 184.038C420.083 183.609 419.868 183.03 419.868 182.302C419.868 181.863 419.957 181.462 420.134 181.098C420.321 180.734 420.577 180.421 420.904 180.16C421.231 179.889 421.623 179.684 422.08 179.544C422.537 179.404 423.037 179.334 423.578 179.334C424.157 179.334 424.698 179.409 425.202 179.558C425.715 179.707 426.173 179.936 426.574 180.244C426.695 180.328 426.775 180.435 426.812 180.566C426.859 180.687 426.868 180.809 426.84 180.93C426.821 181.051 426.77 181.154 426.686 181.238C426.602 181.322 426.495 181.373 426.364 181.392C426.233 181.401 426.089 181.355 425.93 181.252C425.566 181.009 425.193 180.837 424.81 180.734C424.437 180.622 424.021 180.566 423.564 180.566C423.107 180.566 422.705 180.636 422.36 180.776C422.024 180.916 421.763 181.112 421.576 181.364C421.399 181.616 421.31 181.915 421.31 182.26C421.31 182.652 421.436 182.965 421.688 183.198C421.94 183.431 422.36 183.609 422.948 183.73L424.432 184.038C425.365 184.234 426.061 184.537 426.518 184.948C426.975 185.359 427.204 185.905 427.204 186.586C427.204 187.025 427.115 187.421 426.938 187.776C426.761 188.121 426.509 188.42 426.182 188.672C425.855 188.924 425.459 189.12 424.992 189.26C424.535 189.391 424.017 189.456 423.438 189.456ZM430.887 189.456C430.411 189.456 429.982 189.363 429.599 189.176C429.226 188.989 428.932 188.737 428.717 188.42C428.502 188.103 428.395 187.743 428.395 187.342C428.395 186.838 428.521 186.441 428.773 186.152C429.034 185.853 429.459 185.643 430.047 185.522C430.644 185.391 431.447 185.326 432.455 185.326H433.113V186.194H432.469C431.797 186.194 431.265 186.227 430.873 186.292C430.481 186.357 430.201 186.469 430.033 186.628C429.874 186.777 429.795 186.987 429.795 187.258C429.795 187.613 429.916 187.902 430.159 188.126C430.402 188.341 430.738 188.448 431.167 188.448C431.512 188.448 431.816 188.369 432.077 188.21C432.338 188.042 432.544 187.818 432.693 187.538C432.852 187.258 432.931 186.936 432.931 186.572V184.962C432.931 184.43 432.819 184.047 432.595 183.814C432.371 183.581 432.002 183.464 431.489 183.464C431.19 183.464 430.878 183.501 430.551 183.576C430.234 183.651 429.902 183.777 429.557 183.954C429.398 184.029 429.263 184.052 429.151 184.024C429.039 183.996 428.95 183.935 428.885 183.842C428.82 183.739 428.782 183.632 428.773 183.52C428.773 183.399 428.801 183.282 428.857 183.17C428.922 183.058 429.03 182.974 429.179 182.918C429.59 182.722 429.996 182.582 430.397 182.498C430.798 182.414 431.176 182.372 431.531 182.372C432.156 182.372 432.67 182.47 433.071 182.666C433.482 182.862 433.785 183.161 433.981 183.562C434.177 183.963 434.275 184.481 434.275 185.116V188.714C434.275 188.938 434.219 189.115 434.107 189.246C433.995 189.367 433.832 189.428 433.617 189.428C433.412 189.428 433.248 189.367 433.127 189.246C433.006 189.115 432.945 188.938 432.945 188.714V187.804H433.071C432.996 188.149 432.856 188.448 432.651 188.7C432.455 188.943 432.208 189.129 431.909 189.26C431.61 189.391 431.27 189.456 430.887 189.456ZM439.135 189.456C438.575 189.456 438.103 189.358 437.721 189.162C437.338 188.966 437.053 188.677 436.867 188.294C436.68 187.911 436.587 187.445 436.587 186.894V183.59H435.747C435.56 183.59 435.415 183.543 435.313 183.45C435.21 183.347 435.159 183.212 435.159 183.044C435.159 182.867 435.21 182.731 435.313 182.638C435.415 182.545 435.56 182.498 435.747 182.498H436.587V181.056C436.587 180.823 436.647 180.645 436.769 180.524C436.899 180.403 437.077 180.342 437.301 180.342C437.525 180.342 437.697 180.403 437.819 180.524C437.94 180.645 438.001 180.823 438.001 181.056V182.498H439.639C439.825 182.498 439.97 182.545 440.073 182.638C440.175 182.731 440.227 182.867 440.227 183.044C440.227 183.212 440.175 183.347 440.073 183.45C439.97 183.543 439.825 183.59 439.639 183.59H438.001V186.782C438.001 187.277 438.103 187.65 438.309 187.902C438.523 188.154 438.869 188.28 439.345 188.28C439.513 188.28 439.657 188.266 439.779 188.238C439.909 188.201 440.017 188.177 440.101 188.168C440.203 188.168 440.287 188.205 440.353 188.28C440.418 188.345 440.451 188.476 440.451 188.672C440.451 188.812 440.423 188.943 440.367 189.064C440.32 189.185 440.231 189.265 440.101 189.302C439.989 189.339 439.835 189.372 439.639 189.4C439.452 189.437 439.284 189.456 439.135 189.456Z" fill="#003467"/>
</svg>
