<svg width="24" height="16" viewBox="0 0 24 16" fill="none" xmlns="http://www.w3.org/2000/svg">
<path fill-rule="evenodd" clip-rule="evenodd" d="M4.305 7.62428L7.26 10.5793C7.37053 10.6823 7.45918 10.8065 7.52067 10.9445C7.58216 11.0825 7.61522 11.2314 7.61789 11.3825C7.62055 11.5336 7.59277 11.6836 7.53618 11.8237C7.4796 11.9638 7.39539 12.091 7.28856 12.1978C7.18173 12.3047 7.05448 12.3889 6.9144 12.4455C6.77431 12.502 6.62427 12.5298 6.47322 12.5272C6.32216 12.5245 6.17319 12.4914 6.03519 12.43C5.89719 12.3685 5.77299 12.2798 5.67 12.1693L0.795 7.29428L0 6.49928L0.795 5.70428L5.67 0.829281C5.88326 0.630561 6.16533 0.522377 6.45678 0.527519C6.74824 0.532661 7.02631 0.650729 7.23243 0.856849C7.43855 1.06297 7.55662 1.34105 7.56176 1.6325C7.5669 1.92395 7.45872 2.20602 7.26 2.41928L4.305 5.37428H19.125C20.4179 5.37428 21.6579 5.8879 22.5721 6.80214C23.4864 7.71638 24 8.95635 24 10.2493C24 11.5422 23.4864 12.7822 22.5721 13.6964C21.6579 14.6107 20.4179 15.1243 19.125 15.1243H16.125C15.8266 15.1243 15.5405 15.0058 15.3295 14.7948C15.1185 14.5838 15 14.2976 15 13.9993C15 13.7009 15.1185 13.4148 15.3295 13.2038C15.5405 12.9928 15.8266 12.8743 16.125 12.8743H19.125C19.8212 12.8743 20.4889 12.5977 20.9812 12.1054C21.4734 11.6132 21.75 10.9455 21.75 10.2493C21.75 9.55309 21.4734 8.88541 20.9812 8.39313C20.4889 7.90084 19.8212 7.62428 19.125 7.62428H4.305Z" fill="#003467"/>
</svg>
