<svg width="25" height="24" viewBox="0 0 25 24" fill="none" xmlns="http://www.w3.org/2000/svg">
<path d="M12.3288 24C11.6851 23.9993 11.0675 23.7455 10.6093 23.2935L2.06514 14.7355C1.84589 14.5175 1.70924 14.23 1.67859 13.9224L0.505602 1.4586C0.487646 1.26335 0.512979 1.06655 0.579795 0.882218C0.646611 0.697886 0.753265 0.530564 0.892154 0.392179C1.03053 0.253281 1.19784 0.14662 1.38216 0.0798002C1.56648 0.01298 1.76327 -0.0123546 1.9585 0.00560263L14.4215 1.17866C14.7291 1.20931 15.0166 1.34597 15.2346 1.56524L23.792 10.1099C24.2454 10.5647 24.5 11.1807 24.5 11.8228C24.5 12.465 24.2454 13.081 23.792 13.5358L14.0349 23.2935C13.5816 23.7447 12.9684 23.9986 12.3288 24ZM4.33113 13.1892L12.3288 21.1873L21.726 11.7895L13.7283 3.79139L3.3181 2.81828L4.33113 13.1892Z" fill="#A5F8D3"/>
</svg>
