<svg width="56" height="56" viewBox="0 0 56 56" fill="none" xmlns="http://www.w3.org/2000/svg">
<path d="M7.26758 27.9856C7.26758 30.7064 7.80347 33.4004 8.84465 35.9141C9.88582 38.4277 11.4119 40.7116 13.3358 42.6355C15.2596 44.5593 17.5435 46.0854 20.0572 47.1266C22.5708 48.1678 25.2649 48.7037 27.9856 48.7037C30.7064 48.7037 33.4004 48.1678 35.9141 47.1266C38.4277 46.0854 40.7116 44.5593 42.6355 42.6355C44.5593 40.7116 46.0854 38.4277 47.1266 35.9141C48.1678 33.4004 48.7037 30.7064 48.7037 27.9856C48.7037 22.4909 46.5209 17.2211 42.6355 13.3358C38.7501 9.45037 33.4804 7.26758 27.9856 7.26758C22.4909 7.26758 17.2211 9.45037 13.3358 13.3358C9.45037 17.2211 7.26758 22.4909 7.26758 27.9856Z" fill="#0B5975"/>
<path d="M23.0417 30.6215C23.0417 31.4121 22.9839 31.9777 22.8698 32.3178C22.7485 32.6725 22.5538 32.9977 22.2983 33.2721C22.0311 33.5677 21.6543 33.7785 21.1735 33.905C20.6904 34.032 20.1134 34.0975 19.4447 34.0975C18.721 34.0975 18.1242 34.0306 17.6558 33.8968C17.1856 33.7625 16.8148 33.5342 16.5398 33.212C16.2602 32.881 16.0548 32.4939 15.9375 32.0767C15.811 31.6427 15.7478 30.9479 15.7478 29.9973V29.4743H18.7609V30.7599C18.7609 31.2297 18.7916 31.5506 18.8512 31.7256C18.9126 31.8994 19.0684 31.986 19.3232 31.986C19.7518 31.986 19.9667 31.612 19.9667 30.8608C19.9667 30.3781 19.9397 30.0165 19.8852 29.7759C19.8311 29.5362 19.672 29.2809 19.4039 29.0132C18.1563 28.114 17.3006 27.4448 16.8327 27.0034C16.0425 26.266 15.6465 25.1811 15.6465 23.7484C15.6465 23.2382 15.6772 22.7973 15.7368 22.421C15.7964 22.0466 15.921 21.6923 16.1094 21.3554C16.3618 20.9269 16.7619 20.6054 17.2346 20.4511C17.7154 20.2902 18.3594 20.2109 19.1624 20.2109C19.9402 20.2109 20.5534 20.2581 21.0017 20.3521C21.4499 20.4461 21.8225 20.6523 22.1177 20.9741C22.4129 21.2963 22.6058 21.7051 22.6998 22.2001C22.7543 22.4953 22.7795 23.0375 22.7795 23.8281V24.0091H19.7884V23.3867C19.7884 23.0251 19.7811 22.8028 19.7687 22.7231C19.7142 22.4155 19.5483 22.2601 19.2659 22.2601C18.8773 22.2601 18.6834 22.6218 18.6834 23.345C18.6834 23.9079 18.7742 24.3107 18.9547 24.5514C19.1358 24.7915 19.694 25.215 20.6332 25.8173C21.6639 26.4736 22.3404 27.1698 22.6622 27.9077C22.9147 28.4839 23.0417 29.3877 23.0417 30.6215ZM32.647 35.7246H29.9538C29.0298 35.7246 28.4399 35.5976 28.1851 35.3424C27.9862 35.1416 27.8854 34.7057 27.8854 34.0352C27.5465 34.0362 27.2088 33.9959 26.8798 33.9151C26.5352 33.824 26.209 33.6741 25.9154 33.4719C25.205 33.0172 24.749 32.4145 24.5487 31.6638C24.4149 31.1688 24.3498 30.2984 24.3498 29.0526V24.7723C24.3498 24.1705 24.364 23.6778 24.3984 23.2964C24.4294 22.9229 24.5072 22.5548 24.6298 22.2006C24.8975 21.5044 25.3499 20.9979 25.986 20.6835C26.6227 20.3686 27.4096 20.2114 28.3455 20.2114C29.4579 20.2114 30.3622 20.3961 31.0584 20.7651C31.7551 21.1322 32.2253 21.7056 32.4655 22.4834C32.5594 22.7639 32.6117 23.142 32.6268 23.6173C32.6392 24.093 32.647 24.451 32.647 24.6939V29.1952C32.647 30.3195 32.5993 31.0973 32.5049 31.5263C32.3064 32.4484 31.6157 33.0525 30.436 33.3344C30.436 33.669 30.496 33.8697 30.6175 33.9366C30.7371 34.0031 31.0066 34.0361 31.42 34.0361H32.647V35.7246ZM29.0491 30.6215V23.4468C29.0491 23.0311 29.0174 22.7304 28.9501 22.5425C28.8832 22.3546 28.7346 22.2606 28.5069 22.2606C28.2529 22.2606 28.0944 22.3614 28.0343 22.5626C27.9752 22.7634 27.9445 23.1644 27.9445 23.769V30.8617C27.9445 31.2233 27.9784 31.5034 28.0458 31.7069C28.1127 31.9058 28.2594 32.0066 28.4872 32.0066C28.8616 32.0061 29.0491 31.5451 29.0491 30.6215ZM40.9657 34.0356H34.1132V20.2114H37.7102V31.2829H40.9662V34.0356H40.9657Z" fill="#FEFEFE" fill-opacity="0.996078"/>
</svg>
