<svg width="14" height="14" viewBox="0 0 14 14" fill="none" xmlns="http://www.w3.org/2000/svg">
<path d="M13 4H1C0.734865 3.99974 0.480665 3.89429 0.293186 3.70681C0.105707 3.51934 0.000264738 3.26514 0 3V1C0.000264738 0.734865 0.105707 0.480665 0.293186 0.293186C0.480665 0.105707 0.734865 0.000264738 1 0H13C13.2651 0.000264738 13.5193 0.105707 13.7068 0.293186C13.8943 0.480665 13.9997 0.734865 14 1V3C13.9997 3.26514 13.8943 3.51934 13.7068 3.70681C13.5193 3.89429 13.2651 3.99974 13 4ZM1 1V3H13V1H1ZM13 14H1C0.734865 13.9997 0.480665 13.8943 0.293186 13.7068C0.105707 13.5193 0.000264738 13.2651 0 13V11C0.000264738 10.7349 0.105707 10.4807 0.293186 10.2932C0.480665 10.1057 0.734865 10.0003 1 10H13C13.2651 10.0003 13.5193 10.1057 13.7068 10.2932C13.8943 10.4807 13.9997 10.7349 14 11V13C13.9997 13.2651 13.8943 13.5193 13.7068 13.7068C13.5193 13.8943 13.2651 13.9997 13 14ZM1 11V13H13V11H1ZM13 9H1C0.734865 8.99974 0.480665 8.89429 0.293186 8.70681C0.105707 8.51934 0.000264738 8.26514 0 8V6C0.000264738 5.73486 0.105707 5.48066 0.293186 5.29319C0.480665 5.10571 0.734865 5.00026 1 5H13C13.2651 5.00026 13.5193 5.10571 13.7068 5.29319C13.8943 5.48066 13.9997 5.73486 14 6V8C13.9997 8.26514 13.8943 8.51934 13.7068 8.70681C13.5193 8.89429 13.2651 8.99974 13 9ZM1 6V8H13V6H1Z" fill="#003467"/>
</svg>
