<svg width="26" height="28" viewBox="0 0 26 28" fill="none" xmlns="http://www.w3.org/2000/svg">
<path d="M22.9329 15.3093C22.9864 14.8816 23.0265 14.4539 23.0265 13.9995C23.0265 13.5451 22.9864 13.1175 22.9329 12.6898L25.7529 10.4846C26.0068 10.2841 26.0736 9.92329 25.9132 9.62927L23.2403 5.00508C23.1615 4.86719 23.0362 4.76187 22.8868 4.70799C22.7374 4.65411 22.5737 4.6552 22.4251 4.71106L19.0973 6.04753C18.4023 5.51294 17.6539 5.07191 16.8386 4.73779L16.3308 1.19615C16.3086 1.0389 16.2299 0.89512 16.1094 0.791778C15.9888 0.688436 15.8347 0.63263 15.6759 0.634828H10.33C9.9959 0.634828 9.71524 0.875393 9.67514 1.19615L9.16729 4.73779C8.35204 5.07191 7.60362 5.52631 6.90865 6.04753L3.58084 4.71106C3.50335 4.68477 3.42211 4.67123 3.34028 4.67096C3.11308 4.67096 2.88588 4.79125 2.7656 5.00508L0.0926595 9.62927C-0.0810815 9.92329 -0.000893165 10.2841 0.253036 10.4846L3.07299 12.6898C3.01953 13.1175 2.97943 13.5585 2.97943 13.9995C2.97943 14.4406 3.01953 14.8816 3.07299 15.3093L0.253036 17.5144C-0.000893165 17.7149 -0.0677168 18.0758 0.0926595 18.3698L2.7656 22.994C2.84438 23.1318 2.9697 23.2372 3.11909 23.291C3.26849 23.3449 3.43218 23.3438 3.58084 23.288L6.90865 21.9515C7.60362 22.4861 8.35204 22.9271 9.16729 23.2613L9.67514 26.8029C9.71524 27.1236 9.9959 27.3642 10.33 27.3642H15.6759C16.01 27.3642 16.2907 27.1236 16.3308 26.8029L16.8386 23.2613C17.6539 22.9271 18.4023 22.4727 19.0973 21.9515L22.4251 23.288C22.5052 23.3147 22.5854 23.3281 22.6656 23.3281C22.8928 23.3281 23.12 23.2078 23.2403 22.994L25.9132 18.3698C26.0736 18.0758 26.0068 17.7149 25.7529 17.5144L22.9329 15.3093ZM20.2867 13.0239C20.3402 13.4382 20.3535 13.7189 20.3535 13.9995C20.3535 14.2802 20.3268 14.5742 20.2867 14.9751L20.0996 16.4854L21.2891 17.4209L22.7324 18.5435L21.7969 20.1606L20.0996 19.479L18.7097 18.9177L17.5069 19.8265C16.9322 20.2542 16.3842 20.5749 15.8363 20.8021L14.4196 21.3768L14.2058 22.887L13.9385 24.6913H12.0674L11.8135 22.887L11.5997 21.3768L10.183 20.8021C9.60832 20.5616 9.07373 20.2542 8.53914 19.8533L7.32296 18.9177L5.9063 19.4924L4.20898 20.174L3.27346 18.5569L4.71684 17.4342L5.9063 16.4987L5.71919 14.9885C5.6791 14.5742 5.65237 14.2668 5.65237 13.9995C5.65237 13.7322 5.6791 13.4248 5.71919 13.0239L5.9063 11.5137L4.71684 10.5782L3.27346 9.45553L4.20898 7.8384L5.9063 8.52L7.29623 9.08131L8.49905 8.17251C9.07373 7.74484 9.62168 7.42409 10.1696 7.19689L11.5863 6.62221L11.8001 5.112L12.0674 3.30777H13.9251L14.179 5.112L14.3929 6.62221L15.8095 7.19689C16.3842 7.43746 16.9188 7.74484 17.4534 8.14578L18.6696 9.08131L20.0862 8.50663L21.7836 7.82503L22.7191 9.44216L21.2891 10.5782L20.0996 11.5137L20.2867 13.0239ZM13.003 8.65364C10.0494 8.65364 7.65707 11.0459 7.65707 13.9995C7.65707 16.9531 10.0494 19.3454 13.003 19.3454C15.9565 19.3454 18.3488 16.9531 18.3488 13.9995C18.3488 11.0459 15.9565 8.65364 13.003 8.65364ZM13.003 16.6725C11.5328 16.6725 10.33 15.4696 10.33 13.9995C10.33 12.5294 11.5328 11.3266 13.003 11.3266C14.4731 11.3266 15.6759 12.5294 15.6759 13.9995C15.6759 15.4696 14.4731 16.6725 13.003 16.6725Z" fill="#02447B"/>
</svg>
