<svg width="24" height="25" viewBox="0 0 24 25" fill="none" xmlns="http://www.w3.org/2000/svg">
<path d="M20 7.66016H4C2.89543 7.66016 2 8.55559 2 9.66016V19.6602C2 20.7647 2.89543 21.6602 4 21.6602H20C21.1046 21.6602 22 20.7647 22 19.6602V9.66016C22 8.55559 21.1046 7.66016 20 7.66016Z" stroke="#003467" stroke-width="2" stroke-linecap="round" stroke-linejoin="round"/>
<path d="M16 21.6602V5.66016C16 5.12972 15.7893 4.62102 15.4142 4.24594C15.0391 3.87087 14.5304 3.66016 14 3.66016H10C9.46957 3.66016 8.96086 3.87087 8.58579 4.24594C8.21071 4.62102 8 5.12972 8 5.66016V21.6602" stroke="#003467" stroke-width="2" stroke-linecap="round" stroke-linejoin="round"/>
</svg>
