<svg width="66" height="65" viewBox="0 0 66 65" fill="none" xmlns="http://www.w3.org/2000/svg">
<path d="M43.8332 56.875V51.4583C43.8332 48.5852 42.6918 45.8297 40.6602 43.798C38.6285 41.7664 35.873 40.625 32.9998 40.625H16.7498C13.8767 40.625 11.1212 41.7664 9.08951 43.798C7.05787 45.8297 5.9165 48.5852 5.9165 51.4583V56.875" stroke="#FEFEFE" stroke-opacity="0.996078" stroke-width="4" stroke-linecap="round" stroke-linejoin="round"/>
<path d="M24.8748 29.7917C30.8579 29.7917 35.7082 24.9414 35.7082 18.9583C35.7082 12.9752 30.8579 8.125 24.8748 8.125C18.8918 8.125 14.0415 12.9752 14.0415 18.9583C14.0415 24.9414 18.8918 29.7917 24.8748 29.7917Z" stroke="#FEFEFE" stroke-opacity="0.996078" stroke-width="4" stroke-linecap="round" stroke-linejoin="round"/>
<path d="M60.0835 56.875V51.4583C60.0817 49.058 59.2828 46.7262 57.8122 44.8292C56.3416 42.9321 54.2826 41.5771 51.9585 40.9771" stroke="#FEFEFE" stroke-opacity="0.996078" stroke-width="4" stroke-linecap="round" stroke-linejoin="round"/>
<path d="M43.8335 8.47705C46.1638 9.0737 48.2292 10.4289 49.7042 12.3291C51.1791 14.2293 51.9797 16.5664 51.9797 18.9718C51.9797 21.3773 51.1791 23.7143 49.7042 25.6145C48.2292 27.5147 46.1638 28.87 43.8335 29.4666" stroke="#FEFEFE" stroke-opacity="0.996078" stroke-width="4" stroke-linecap="round" stroke-linejoin="round"/>
</svg>
