<svg width="21" height="20" viewBox="0 0 21 20" fill="none" xmlns="http://www.w3.org/2000/svg">
<path d="M4.87568 8.068C4.66293 8.68988 4.55479 9.34274 4.55568 10C4.55568 10.734 4.68768 11.437 4.93168 12.086C5.23579 12.8972 5.71347 13.6321 6.33131 14.2393C6.94915 14.8466 7.69222 15.3115 8.50853 15.6015C9.32484 15.8916 10.1947 15.9998 11.0571 15.9185C11.9196 15.8372 12.7539 15.5684 13.5017 15.131H13.5027C14.6807 14.4404 15.5859 13.3661 16.0667 12.088H10.7197V8.132H20.3247C20.5731 9.44049 20.5581 10.7854 20.2807 12.088C19.7999 14.3399 18.5565 16.3568 16.7607 17.798C14.9869 19.2264 12.7771 20.0035 10.4997 20C8.78265 20.001 7.0943 19.5597 5.59731 18.7187C4.10032 17.8778 2.84513 16.6655 1.95269 15.1986C1.06024 13.7317 0.560611 12.0597 0.501934 10.3437C0.443258 8.62764 0.827512 6.92542 1.61768 5.401C2.46065 3.77291 3.73506 2.40796 5.30155 1.4554C6.86805 0.502843 8.6663 -0.000642863 10.4997 6.16024e-07C12.9257 6.16024e-07 15.1507 0.864001 16.8827 2.302L13.6427 4.954C12.8837 4.48164 12.028 4.18643 11.1392 4.09034C10.2504 3.99424 9.35139 4.09972 8.50898 4.39894C7.66658 4.69816 6.90245 5.18342 6.27342 5.81864C5.64439 6.45386 5.16663 7.2227 4.87568 8.068Z" fill="#003467"/>
</svg>
