<svg width="18" height="19" viewBox="0 0 18 19" fill="none" xmlns="http://www.w3.org/2000/svg">
<path d="M6.41801 8.23087C5.97754 7.30039 5.06817 6.66163 4.01784 6.66163C2.53613 6.66163 1.33496 7.93282 1.33496 9.50092C1.33496 11.069 2.53613 12.3402 4.01784 12.3402C5.06817 12.3402 5.97754 11.7014 6.41801 10.771M6.41801 8.23087C6.59891 8.61303 6.70072 9.04439 6.70072 9.50092C6.70072 9.95745 6.59891 10.3888 6.41801 10.771M6.41801 8.23087L11.5827 5.498M6.41801 10.771L11.5827 13.5038M11.5827 5.498C12.0231 6.42848 12.9325 7.06724 13.9828 7.06724C15.4645 7.06724 16.6657 5.79605 16.6657 4.22796C16.6657 2.65986 15.4645 1.38867 13.9828 1.38867C12.5011 1.38867 11.2999 2.65986 11.2999 4.22796C11.2999 4.68449 11.4018 5.11585 11.5827 5.498ZM11.5827 13.5038C11.4018 13.886 11.2999 14.3173 11.2999 14.7739C11.2999 16.342 12.5011 17.6132 13.9828 17.6132C15.4645 17.6132 16.6657 16.342 16.6657 14.7739C16.6657 13.2058 15.4645 11.9346 13.9828 11.9346C12.9325 11.9346 12.0231 12.5734 11.5827 13.5038Z" stroke="#FBFFFF" stroke-width="1.5" stroke-linecap="round"/>
</svg>
