<svg width="93" height="92" viewBox="0 0 93 92" fill="none" xmlns="http://www.w3.org/2000/svg">
<path d="M84.9693 43.3571C84.7048 65.6368 65.9673 83.5515 43.0405 83.2924C20.1137 83.0334 1.80642 64.7002 2.07088 42.4205C2.33533 20.1408 21.0728 2.22612 43.9997 2.48517C66.9265 2.74422 85.2337 21.0774 84.9693 43.3571Z" stroke="#D88373" stroke-width="3"/>
<path d="M91.2339 49.6149C90.9695 71.8946 72.232 89.8093 49.3051 89.5502C26.3783 89.2912 8.07107 70.958 8.33552 48.6783C8.59998 26.3986 27.3375 8.48394 50.2643 8.74299C73.1911 9.00203 91.4984 27.3353 91.2339 49.6149Z" stroke="#D88373" stroke-width="3"/>
<path d="M49.443 42.9283C49.443 43.7786 49.1052 44.5941 48.5039 45.1954C47.9026 45.7966 47.0871 46.1344 46.2368 46.1344L36.6184 46.1344L30.2061 52.5466L30.2061 34.9131C30.2061 33.1498 31.6488 31.707 33.4122 31.707L46.2368 31.707C47.0871 31.707 47.9026 32.0448 48.5039 32.6461C49.1052 33.2473 49.443 34.0628 49.443 34.9131L49.443 42.9283Z" stroke="#FEFEFE" stroke-opacity="0.996078" stroke-width="2" stroke-linecap="round" stroke-linejoin="round"/>
<path d="M55.8559 42.9277L59.062 42.9277C59.9123 42.9277 60.7278 43.2655 61.3291 43.8668C61.9304 44.468 62.2682 45.2835 62.2682 46.1338L62.2682 63.7673L55.8559 57.3551L46.2374 57.3551C45.3871 57.3551 44.5716 57.0173 43.9703 56.4161C43.369 55.8148 43.0313 54.9993 43.0313 54.149L43.0313 52.546" stroke="#FEFEFE" stroke-opacity="0.996078" stroke-width="2" stroke-linecap="round" stroke-linejoin="round"/>
</svg>
