<svg width="24" height="25" viewBox="0 0 24 25" fill="none" xmlns="http://www.w3.org/2000/svg">
<path d="M3 3.2207V21.2207H21" stroke="#003467" stroke-width="2" stroke-linecap="round" stroke-linejoin="round"/>
<path d="M10 10.2207H8C7.44772 10.2207 7 10.6684 7 11.2207V16.2207C7 16.773 7.44772 17.2207 8 17.2207H10C10.5523 17.2207 11 16.773 11 16.2207V11.2207C11 10.6684 10.5523 10.2207 10 10.2207Z" stroke="#003467" stroke-width="2" stroke-linecap="round" stroke-linejoin="round"/>
<path d="M18 5.2207H16C15.4477 5.2207 15 5.66842 15 6.2207V16.2207C15 16.773 15.4477 17.2207 16 17.2207H18C18.5523 17.2207 19 16.773 19 16.2207V6.2207C19 5.66842 18.5523 5.2207 18 5.2207Z" stroke="#003467" stroke-width="2" stroke-linecap="round" stroke-linejoin="round"/>
</svg>
