<svg width="93" height="92" viewBox="0 0 93 92" fill="none" xmlns="http://www.w3.org/2000/svg">
<path d="M84.9693 43.3571C84.7048 65.6368 65.9673 83.5515 43.0405 83.2924C20.1137 83.0334 1.80642 64.7002 2.07088 42.4205C2.33533 20.1408 21.0728 2.22612 43.9997 2.48517C66.9265 2.74422 85.2337 21.0774 84.9693 43.3571Z" stroke="#F7AD19" stroke-width="3"/>
<path d="M91.2339 49.6149C90.9695 71.8946 72.232 89.8093 49.3051 89.5502C26.3783 89.2912 8.07107 70.958 8.33552 48.6783C8.59998 26.3986 27.3375 8.48394 50.2643 8.74299C73.1911 9.00203 91.4984 27.3353 91.2339 49.6149Z" stroke="#F7AD19" stroke-width="3"/>
<path d="M52.2647 31.1637L38.3004 31.0059C37.4289 30.996 36.589 31.3442 35.9652 31.9738C35.3415 32.6034 34.985 33.4628 34.9744 34.3631L34.652 61.5175C34.6414 62.4177 34.9773 63.285 35.5859 63.9285C36.1946 64.572 37.026 64.9391 37.8975 64.9489L57.6118 65.1717C58.4833 65.1815 59.3232 64.8334 59.947 64.2038C60.5707 63.5742 60.9272 62.7147 60.9378 61.8145L61.1897 40.6001L52.2647 31.1637Z" stroke="#FEFEFE" stroke-opacity="0.996078" stroke-width="2" stroke-linecap="round" stroke-linejoin="round"/>
<path d="M51.4434 31.1543L51.3225 41.3372L61.1797 41.4486" stroke="#FEFEFE" stroke-opacity="0.996078" stroke-width="2" stroke-linecap="round" stroke-linejoin="round"/>
<path d="M47.0338 56.5654C49.3021 56.591 51.1635 54.7122 51.1913 52.3689C51.2191 50.0256 49.4028 48.1052 47.1345 48.0796C44.8662 48.054 43.0048 49.9328 42.977 52.2761C42.9492 54.6194 44.7655 56.5397 47.0338 56.5654Z" stroke="#FEFEFE" stroke-opacity="0.996078" stroke-width="2" stroke-linecap="round" stroke-linejoin="round"/>
<path d="M49.9238 55.3242L52.7636 58.3267" stroke="#FEFEFE" stroke-opacity="0.996078" stroke-width="2" stroke-linecap="round" stroke-linejoin="round"/>
</svg>
