<svg width="28" height="34" viewBox="0 0 28 34" fill="none" xmlns="http://www.w3.org/2000/svg">
<path d="M10.8889 30.2216H17.1111C17.1111 31.9327 15.7111 33.3327 14 33.3327C12.2889 33.3327 10.8889 31.9327 10.8889 30.2216ZM28 27.1105V28.666H0V27.1105L3.11111 23.9993V14.666C3.11111 9.84379 6.22222 5.64379 10.8889 4.24379V3.77713C10.8889 2.06602 12.2889 0.666016 14 0.666016C15.7111 0.666016 17.1111 2.06602 17.1111 3.77713V4.24379C21.7778 5.64379 24.8889 9.84379 24.8889 14.666V23.9993L28 27.1105ZM21.7778 14.666C21.7778 10.3105 18.3556 6.88824 14 6.88824C9.64444 6.88824 6.22222 10.3105 6.22222 14.666V25.5549H21.7778V14.666Z" fill="#02447B"/>
</svg>
