<svg width="66" height="65" viewBox="0 0 66 65" fill="none" xmlns="http://www.w3.org/2000/svg">
<path d="M33.0003 12.1879C33.0104 10.4936 32.3848 8.85698 31.247 7.60137C30.1092 6.34575 28.542 5.56237 26.8549 5.4059C25.1677 5.24943 23.4832 5.73124 22.1339 6.7562C20.7846 7.78116 19.8687 9.27477 19.567 10.9421C18.6742 11.1094 17.8242 11.4546 17.0676 11.9571C16.3109 12.4597 15.6632 13.1094 15.1628 13.8675C14.6625 14.6256 14.3198 15.4766 14.1552 16.3699C13.9905 17.2632 14.0073 18.1804 14.2045 19.0671C12.9821 19.2841 11.8429 19.833 10.9115 20.6538C9.98006 21.4746 9.29222 22.5357 8.92319 23.7211C8.55416 24.9065 8.51814 26.1705 8.81907 27.3749C9.12001 28.5794 9.7463 29.6779 10.6295 30.5504C9.14406 31.2362 7.90026 32.3545 7.06089 33.7589C6.22153 35.1632 5.8257 36.7883 5.9252 38.4214C6.02471 40.0545 6.61492 41.6194 7.61858 42.9115C8.62225 44.2036 9.99261 45.1626 11.5503 45.6629C11.2529 46.7865 11.2497 47.9677 11.5411 49.0929C11.8324 50.218 12.4085 51.2492 13.2139 52.0872C14.0192 52.9252 15.0267 53.5418 16.1394 53.8776C17.2521 54.2134 18.4325 54.2572 19.567 54.0046C19.8466 55.5684 20.6671 56.9841 21.8851 58.004C23.1031 59.024 24.6409 59.5832 26.2295 59.5838C29.5066 59.5838 33.0003 57.5796 33.0003 52.8129M33.0003 12.1879C32.9903 10.4936 33.6159 8.85698 34.7537 7.60137C35.8914 6.34575 37.4586 5.56237 39.1458 5.4059C40.833 5.24943 42.5175 5.73124 43.8668 6.7562C45.216 7.78116 46.1319 9.27477 46.4337 10.9421C47.3264 11.1094 48.1765 11.4546 48.9331 11.9571C49.6897 12.4597 50.3375 13.1094 50.8378 13.8675C51.3382 14.6256 51.6809 15.4766 51.8455 16.3699C52.0101 17.2632 51.9934 18.1804 51.7962 19.0671C53.0185 19.2841 54.1577 19.833 55.0892 20.6538C56.0206 21.4746 56.7084 22.5357 57.0775 23.7211C57.4465 24.9065 57.4825 26.1705 57.1816 27.3749C56.8806 28.5794 56.2543 29.6779 55.3712 30.5504C56.8566 31.2362 58.1004 32.3545 58.9398 33.7589C59.7791 35.1632 60.175 36.7883 60.0754 38.4214C59.9759 40.0545 59.3857 41.6194 58.3821 42.9115C57.3784 44.2036 56.008 45.1626 54.4503 45.6629C54.7477 46.7865 54.7509 47.9677 54.4596 49.0929C54.1682 50.218 53.5921 51.2492 52.7868 52.0872C51.9814 52.9252 50.9739 53.5418 49.8612 53.8776C48.7485 54.2134 47.5681 54.2572 46.4337 54.0046C46.1541 55.5684 45.3335 56.9841 44.1155 58.004C42.8976 59.024 41.3598 59.5832 39.7712 59.5838C36.4941 59.5838 33.0003 57.5796 33.0003 52.8129M33.0003 12.1879V13.5421M33.0003 52.8129V51.4588" stroke="#FEFEFE" stroke-opacity="0.996078" stroke-width="4" stroke-linecap="round" stroke-linejoin="round"/>
<path d="M32.9997 37.9173C35.9912 37.9173 38.4163 35.4922 38.4163 32.5007C38.4163 29.5091 35.9912 27.084 32.9997 27.084C30.0081 27.084 27.583 29.5091 27.583 32.5007C27.583 35.4922 30.0081 37.9173 32.9997 37.9173Z" stroke="#FEFEFE" stroke-opacity="0.996078" stroke-width="4" stroke-linecap="round" stroke-linejoin="round"/>
<path d="M33 24.375V27.0833" stroke="#FEFEFE" stroke-opacity="0.996078" stroke-width="4" stroke-linecap="round" stroke-linejoin="round"/>
<path d="M33 37.916V40.6243" stroke="#FEFEFE" stroke-opacity="0.996078" stroke-width="4" stroke-linecap="round" stroke-linejoin="round"/>
<path d="M40.0418 28.4375L37.6855 29.7917" stroke="#FEFEFE" stroke-opacity="0.996078" stroke-width="4" stroke-linecap="round" stroke-linejoin="round"/>
<path d="M28.3143 35.209L25.958 36.5632" stroke="#FEFEFE" stroke-opacity="0.996078" stroke-width="4" stroke-linecap="round" stroke-linejoin="round"/>
<path d="M40.0418 36.5632L37.6855 35.209" stroke="#FEFEFE" stroke-opacity="0.996078" stroke-width="4" stroke-linecap="round" stroke-linejoin="round"/>
<path d="M28.3143 29.7917L25.958 28.4375" stroke="#FEFEFE" stroke-opacity="0.996078" stroke-width="4" stroke-linecap="round" stroke-linejoin="round"/>
</svg>
