<svg width="17" height="20" viewBox="0 0 17 20" fill="none" xmlns="http://www.w3.org/2000/svg">
<path d="M13.623 10.627C13.598 8.094 15.689 6.879 15.782 6.819C14.607 5.099 12.777 4.864 12.125 4.837C10.568 4.679 9.08601 5.754 8.29501 5.754C7.50701 5.754 6.28701 4.86 4.99501 4.884C3.29901 4.909 1.73401 5.87 0.860013 7.39C-0.903987 10.45 0.408013 14.985 2.12701 17.467C2.96701 18.682 3.96901 20.047 5.28401 19.997C6.55001 19.947 7.02901 19.178 8.56001 19.178C10.091 19.178 10.522 19.998 11.862 19.973C13.225 19.947 14.088 18.734 14.922 17.516C15.887 16.106 16.284 14.741 16.308 14.671C16.278 14.658 13.65 13.651 13.624 10.626L13.623 10.627ZM11.105 3.194C11.803 2.347 12.274 1.172 12.145 0C11.14 0.04 9.92101 0.67 9.20001 1.515C8.55301 2.265 7.98601 3.46 8.13801 4.609C9.26001 4.697 10.406 4.039 11.105 3.194Z" fill="#003467"/>
</svg>
