<svg width="93" height="92" viewBox="0 0 93 92" fill="none" xmlns="http://www.w3.org/2000/svg">
<path d="M84.9715 43.3582C84.707 65.6385 65.969 83.5537 43.0416 83.2946C20.1141 83.0355 1.8064 64.7018 2.07086 42.4215C2.33533 20.1413 21.0733 2.22613 44.0008 2.48519C66.9282 2.74424 85.2359 21.078 84.9715 43.3582Z" stroke="#98C1D9" stroke-width="3"/>
<path d="M91.2361 49.616C90.9717 71.8963 72.2336 89.8115 49.3062 89.5524C26.3788 89.2934 8.07105 70.9596 8.33551 48.6794C8.59997 26.3991 27.338 8.48394 50.2654 8.743C73.1928 9.00205 91.5006 27.3358 91.2361 49.616Z" stroke="#98C1D9" stroke-width="3"/>
<path d="M67.6743 41.2907L67.6743 53.4872M67.6743 41.2907L46.8396 31.127L26.0049 41.2907L46.8396 51.4544L67.6743 41.2907Z" stroke="#FEFEFE" stroke-opacity="0.996078" stroke-width="2" stroke-linecap="round" stroke-linejoin="round"/>
<path d="M34.3389 45.3555L34.3389 55.5192C40.5893 61.6174 53.0901 61.6174 59.3405 55.5192L59.3405 45.3555" stroke="#FEFEFE" stroke-opacity="0.996078" stroke-width="2" stroke-linecap="round" stroke-linejoin="round"/>
</svg>
