<svg width="5" height="14" viewBox="0 0 5 14" fill="none" xmlns="http://www.w3.org/2000/svg">
<path d="M2.5 14C3.60457 14 4.5 13.1046 4.5 12C4.5 10.8954 3.60457 10 2.5 10C1.39543 10 0.5 10.8954 0.5 12C0.5 13.1046 1.39543 14 2.5 14Z" fill="#003467"/>
<path d="M2.5 9C3.60457 9 4.5 8.10457 4.5 7C4.5 5.89543 3.60457 5 2.5 5C1.39543 5 0.5 5.89543 0.5 7C0.5 8.10457 1.39543 9 2.5 9Z" fill="#003467"/>
<path d="M2.5 4C3.60457 4 4.5 3.10457 4.5 2C4.5 0.89543 3.60457 0 2.5 0C1.39543 0 0.5 0.89543 0.5 2C0.5 3.10457 1.39543 4 2.5 4Z" fill="#003467"/>
</svg>
