<svg width="22" height="22" viewBox="0 0 22 22" fill="none" xmlns="http://www.w3.org/2000/svg">
<path d="M11 11H10.25C10.25 11.3228 10.4566 11.6094 10.7628 11.7115L11 11ZM11.75 6C11.75 5.58579 11.4142 5.25 11 5.25C10.5858 5.25 10.25 5.58579 10.25 6H11.75ZM13.7628 12.7115C14.1558 12.8425 14.5805 12.6301 14.7115 12.2372C14.8425 11.8442 14.6301 11.4195 14.2372 11.2885L13.7628 12.7115ZM11.75 11V6H10.25V11H11.75ZM10.7628 11.7115L13.7628 12.7115L14.2372 11.2885L11.2372 10.2885L10.7628 11.7115ZM20.25 11C20.25 16.1086 16.1086 20.25 11 20.25V21.75C16.9371 21.75 21.75 16.9371 21.75 11H20.25ZM11 20.25C5.89137 20.25 1.75 16.1086 1.75 11H0.25C0.25 16.9371 5.06294 21.75 11 21.75V20.25ZM1.75 11C1.75 5.89137 5.89137 1.75 11 1.75V0.25C5.06294 0.25 0.25 5.06294 0.25 11H1.75ZM11 1.75C16.1086 1.75 20.25 5.89137 20.25 11H21.75C21.75 5.06294 16.9371 0.25 11 0.25V1.75Z" fill="#003467"/>
</svg>
