<svg width="93" height="92" viewBox="0 0 93 92" fill="none" xmlns="http://www.w3.org/2000/svg">
<path d="M84.9715 43.3582C84.707 65.6385 65.969 83.5537 43.0416 83.2946C20.1141 83.0355 1.8064 64.7018 2.07086 42.4215C2.33533 20.1413 21.0733 2.22613 44.0008 2.48519C66.9282 2.74424 85.2359 21.078 84.9715 43.3582Z" stroke="#A5F8D3" stroke-width="3"/>
<path d="M91.2361 49.616C90.9717 71.8963 72.2336 89.8115 49.3062 89.5524C26.3788 89.2934 8.07105 70.9596 8.33551 48.6794C8.59997 26.3991 27.338 8.48394 50.2654 8.743C73.1928 9.00205 91.5006 27.3358 91.2361 49.616Z" stroke="#A5F8D3" stroke-width="3"/>
<path d="M31.9287 31.3086L31.9287 60.1631L61.5032 60.1631" stroke="#FEFEFE" stroke-opacity="0.996078" stroke-width="2" stroke-linecap="round" stroke-linejoin="round"/>
<path d="M38.501 45.7363L38.501 53.7515L58.2173 53.7515L58.2173 39.3242L50.0022 47.3394L43.4301 40.9272L38.501 45.7363Z" stroke="#FEFEFE" stroke-opacity="0.996078" stroke-width="2" stroke-linecap="round" stroke-linejoin="round"/>
</svg>
