<svg width="24" height="23" viewBox="0 0 24 23" fill="none" xmlns="http://www.w3.org/2000/svg">
<path d="M11.52 12.5894V20.2694H1.92V12.5894H11.52ZM11.52 10.6694H1.92C1.41078 10.6694 0.922425 10.8717 0.562355 11.2317C0.202285 11.5918 0 12.0802 0 12.5894V20.2694C0 20.7786 0.202285 21.2669 0.562355 21.627C0.922425 21.9871 1.41078 22.1894 1.92 22.1894H11.52C12.0292 22.1894 12.5176 21.9871 12.8776 21.627C13.2377 21.2669 13.44 20.7786 13.44 20.2694V12.5894C13.44 12.0802 13.2377 11.5918 12.8776 11.2317C12.5176 10.8717 12.0292 10.6694 11.52 10.6694ZM22.08 2.02937V6.82937H12.48V2.02937H22.08ZM22.08 0.109375H12.48C11.9708 0.109375 11.4824 0.31166 11.1224 0.67173C10.7623 1.0318 10.56 1.52016 10.56 2.02937V6.82937C10.56 7.33859 10.7623 7.82695 11.1224 8.18702C11.4824 8.54709 11.9708 8.74937 12.48 8.74937H22.08C22.5892 8.74937 23.0776 8.54709 23.4376 8.18702C23.7977 7.82695 24 7.33859 24 6.82937V2.02937C24 1.52016 23.7977 1.0318 23.4376 0.67173C23.0776 0.31166 22.5892 0.109375 22.08 0.109375ZM22.08 12.5894V17.3894H17.28V12.5894H22.08ZM22.08 10.6694H17.28C16.7708 10.6694 16.2824 10.8717 15.9224 11.2317C15.5623 11.5918 15.36 12.0802 15.36 12.5894V17.3894C15.36 17.8986 15.5623 18.3869 15.9224 18.747C16.2824 19.1071 16.7708 19.3094 17.28 19.3094H22.08C22.5892 19.3094 23.0776 19.1071 23.4376 18.747C23.7977 18.3869 24 17.8986 24 17.3894V12.5894C24 12.0802 23.7977 11.5918 23.4376 11.2317C23.0776 10.8717 22.5892 10.6694 22.08 10.6694ZM6.72 2.02937V6.82937H1.92V2.02937H6.72ZM6.72 0.109375H1.92C1.41078 0.109375 0.922425 0.31166 0.562355 0.67173C0.202285 1.0318 0 1.52016 0 2.02937V6.82937C0 7.33859 0.202285 7.82695 0.562355 8.18702C0.922425 8.54709 1.41078 8.74937 1.92 8.74937H6.72C7.22922 8.74937 7.71757 8.54709 8.07764 8.18702C8.43771 7.82695 8.64 7.33859 8.64 6.82937V2.02937C8.64 1.52016 8.43771 1.0318 8.07764 0.67173C7.71757 0.31166 7.22922 0.109375 6.72 0.109375Z" fill="#003467"/>
</svg>
