<svg width="174" height="37" viewBox="0 0 174 37" fill="none" xmlns="http://www.w3.org/2000/svg">
<path d="M174 0.0208664H0V37H174V0.0208664ZM172.339 35.3817H1.66106V1.63892H172.339V35.3817Z" fill="#6DEB74"/>
<path d="M174 36.9795H68.4619V0.000156403H174V36.9795Z" fill="#061C3C"/>
<path d="M18.9189 29.5119V26.2919L18.9968 22.6605L18.7397 19.0303V10.5434H21.9841V29.5119H18.9189ZM14.7202 26.9821C15.4935 26.9821 16.1843 26.8071 16.7939 26.4575C17.4035 26.1077 17.893 25.6049 18.2625 24.9489C18.6321 24.2927 18.816 23.5394 18.816 22.6867C18.816 21.8171 18.6321 21.0635 18.2625 20.4244C17.893 19.7855 17.4035 19.2904 16.7939 18.9422C16.1843 18.5924 15.4935 18.4176 14.7202 18.4176C13.9484 18.4176 13.2562 18.5924 12.6466 18.9422C12.037 19.2904 11.5475 19.7855 11.1794 20.4244C10.81 21.0635 10.6245 21.8171 10.6245 22.6867C10.6245 23.5394 10.81 24.2927 11.1794 24.9489C11.5475 25.6049 12.037 26.1077 12.6466 26.4575C13.2562 26.8071 13.9484 26.9821 14.7202 26.9821ZM14.3336 29.6914C13.0115 29.6914 11.8234 29.4021 10.7664 28.8219C9.71089 28.2431 8.88138 27.4292 8.28119 26.3802C7.67936 25.3326 7.37988 24.1009 7.37988 22.6867C7.37988 21.2895 7.67936 20.0625 8.28119 19.0056C8.88138 17.9488 9.71089 17.1303 10.7664 16.5515C11.8234 15.9712 13.0115 15.6819 14.3336 15.6819C15.4843 15.6819 16.5147 15.9341 17.4254 16.4355C18.3359 16.9384 19.0562 17.7058 19.5893 18.7363C20.1209 19.7685 20.3877 21.0853 20.3877 22.6867C20.3877 24.2712 20.1303 25.5848 19.6142 26.623C19.0997 27.6628 18.392 28.4349 17.4892 28.9378C16.5881 29.4407 15.5356 29.6914 14.3336 29.6914Z" fill="#061C3C"/>
<path d="M33.4856 29.5119V26.7251L33.3311 26.1636V21.3313C33.3311 20.3952 33.0427 19.6664 32.4675 19.1464C31.8922 18.6265 31.0206 18.3667 29.8529 18.3667C29.0967 18.3667 28.3498 18.4856 27.6123 18.724C26.8735 18.9623 26.2373 19.2951 25.7056 19.7206L24.4443 17.3948C25.1989 16.8333 26.083 16.4061 27.0964 16.1168C28.1098 15.8275 29.1654 15.6819 30.2645 15.6819C32.2741 15.6819 33.8192 16.16 34.9011 17.1132C35.9833 18.068 36.5242 19.5332 36.5242 21.5108V29.5119H33.4856ZM29.1574 29.6914C28.127 29.6914 27.2257 29.5166 26.4525 29.1668C25.6806 28.8188 25.0835 28.3328 24.6625 27.7093C24.2415 27.0889 24.0312 26.3849 24.0312 25.6004C24.0312 24.8344 24.2152 24.1443 24.5846 23.53C24.9542 22.9173 25.5591 22.4315 26.4009 22.0723C27.2429 21.715 28.3592 21.5356 29.75 21.5356H33.7429V23.6583H29.9822C28.9003 23.6583 28.1659 23.8333 27.7793 24.1815C27.3926 24.5311 27.1993 24.9706 27.1993 25.4983C27.1993 26.0614 27.4315 26.5132 27.8946 26.8536C28.3592 27.1941 29.0032 27.3642 29.828 27.3642C30.6168 27.3642 31.3246 27.1864 31.953 26.8274C32.5798 26.4699 33.0382 25.9423 33.3311 25.2429L33.8458 27.16C33.5369 27.9615 32.9866 28.5835 32.1978 29.0261C31.4072 29.4701 30.3938 29.6914 29.1574 29.6914Z" fill="#061C3C"/>
<path d="M45.2204 29.6914C43.7097 29.6914 42.5418 29.303 41.717 28.5279C40.8939 27.7526 40.4806 26.6153 40.4806 25.116V12.8442H43.6753V25.0122C43.6753 25.6607 43.8467 26.1636 44.1914 26.5209C44.5345 26.88 45.0146 27.0579 45.6336 27.0579C46.3367 27.0579 46.9213 26.8707 47.3845 26.4961L48.3122 28.7707C47.9161 29.0771 47.4452 29.3077 46.8949 29.4608C46.3461 29.6141 45.7878 29.6914 45.2204 29.6914ZM38.2139 15.9635H47.3845V18.5197H38.2139V15.9635Z" fill="#061C3C"/>
<path d="M59.6677 29.5119V26.7251L59.5133 26.1636V21.3313C59.5133 20.3952 59.2248 19.6664 58.6513 19.1464C58.0744 18.6265 57.2027 18.3667 56.0365 18.3667C55.2805 18.3667 54.5336 18.4856 53.7945 18.724C53.0571 18.9623 52.4211 19.2951 51.8894 19.7206L50.6264 17.3948C51.3827 16.8333 52.2666 16.4061 53.28 16.1168C54.2934 15.8275 55.349 15.6819 56.4481 15.6819C58.4579 15.6819 60.003 16.16 61.0849 17.1132C62.1669 18.068 62.708 19.5332 62.708 21.5108V29.5119H59.6677ZM55.3412 29.6914C54.3106 29.6914 53.4079 29.5166 52.6363 29.1668C51.8628 28.8188 51.2657 28.3328 50.8447 27.7093C50.4237 27.0889 50.2148 26.3849 50.2148 25.6004C50.2148 24.8344 50.399 24.1443 50.7684 23.53C51.1378 22.9173 51.7427 22.4315 52.5847 22.0723C53.4251 21.715 54.5414 21.5356 55.9336 21.5356H59.9251V23.6583H56.1644C55.0824 23.6583 54.3481 23.8333 53.9631 24.1815C53.5762 24.5311 53.3829 24.9706 53.3829 25.4983C53.3829 26.0614 53.6153 26.5132 54.0784 26.8536C54.5414 27.1941 55.1853 27.3642 56.0101 27.3642C56.8006 27.3642 57.5084 27.1864 58.1351 26.8274C58.7619 26.4699 59.2218 25.9423 59.5133 25.2429L60.028 27.16C59.7191 27.9615 59.1704 28.5835 58.38 29.0261C57.5894 29.4701 56.5776 29.6914 55.3412 29.6914Z" fill="#061C3C"/>
<path d="M74.2109 14.2829H77.7734V29.5117H74.2109V14.2829ZM75.9914 11.7732C75.3211 11.7732 74.7708 11.5627 74.3404 11.1449C73.9086 10.7273 73.6934 10.2134 73.6934 9.60538C73.6934 9.0345 73.9086 8.54077 74.3404 8.12153C74.7708 7.70372 75.3211 7.49481 75.9914 7.49481C76.662 7.49481 77.2139 7.68971 77.6441 8.07971C78.0759 8.46971 78.2911 8.96792 78.2911 9.57595C78.2911 10.1856 78.0806 10.7025 77.6582 11.1311C77.2372 11.558 76.6822 11.7732 75.9914 11.7732Z" fill="#FFFDF9"/>
<path d="M90.0485 15.6817C91.1632 15.6817 92.1471 15.8953 92.9967 16.3208C93.8481 16.7478 94.5262 17.4039 95.0329 18.2889C95.5382 19.1757 95.7923 20.3083 95.7923 21.69V29.5117H92.5726V22.0985C92.5726 20.8885 92.2889 19.9849 91.7214 19.389C91.1554 18.7918 90.3478 18.4931 89.3002 18.4931C88.5456 18.4931 87.875 18.648 87.292 18.9544C86.7074 19.2607 86.2567 19.7171 85.9386 20.3221C85.6207 20.9271 85.4632 21.69 85.4632 22.6091V29.5117H82.2686V15.8612H85.3337V19.5671L84.7929 18.4174C85.2574 17.5479 85.948 16.8747 86.8663 16.3982C87.7846 15.9201 88.8449 15.6817 90.0485 15.6817Z" fill="#FFFDF9"/>
<path d="M104.163 29.6914C102.995 29.6914 101.888 29.5414 100.841 29.2442C99.7929 28.9455 98.951 28.5835 98.3164 28.158L99.5528 25.7287C100.17 26.1217 100.909 26.4405 101.768 26.688C102.626 26.934 103.494 27.0579 104.369 27.0579C105.365 27.0579 106.09 26.9263 106.545 26.6618C107.001 26.3972 107.228 26.0351 107.228 25.5756C107.228 25.2011 107.074 24.9148 106.765 24.7183C106.456 24.5234 106.053 24.3733 105.554 24.271C105.056 24.1689 104.501 24.0761 103.893 23.9911C103.284 23.906 102.673 23.7899 102.064 23.6459C101.455 23.5006 100.9 23.287 100.403 23.0054C99.9036 22.7255 99.5012 22.3462 99.1911 21.8681C98.8824 21.3916 98.728 20.7525 98.728 19.951C98.728 19.1 98.9776 18.3541 99.4749 17.7152C99.9738 17.0744 100.672 16.5762 101.575 16.2189C102.476 15.8614 103.546 15.6819 104.782 15.6819C105.691 15.6819 106.623 15.7887 107.576 16.0023C108.53 16.2143 109.324 16.5082 109.958 16.8842L108.697 19.3119C108.061 18.9375 107.409 18.6775 106.739 18.5321C106.07 18.3882 105.409 18.3155 104.755 18.3155C103.794 18.3155 103.073 18.4564 102.591 18.7363C102.111 19.0179 101.871 19.3801 101.871 19.8241C101.871 20.2326 102.026 20.5389 102.334 20.7432C102.643 20.9474 103.047 21.1054 103.546 21.2166C104.043 21.3281 104.597 21.4302 105.206 21.5232C105.816 21.6174 106.421 21.7365 107.022 21.8821C107.623 22.0261 108.178 22.2303 108.685 22.4948C109.19 22.7594 109.598 23.1307 109.907 23.6074C110.217 24.0838 110.371 24.7059 110.371 25.4733C110.371 26.343 110.117 27.0887 109.611 27.7093C109.104 28.3328 108.391 28.8186 107.473 29.1668C106.555 29.5166 105.451 29.6914 104.163 29.6914Z" fill="#FFFDF9"/>
<path d="M118.331 29.6914C116.82 29.6914 115.652 29.303 114.828 28.5279C114.004 27.7526 113.591 26.6153 113.591 25.116V12.8442H116.786V25.0122C116.786 25.6607 116.957 26.1636 117.302 26.5209C117.645 26.88 118.125 27.0579 118.744 27.0579C119.447 27.0579 120.032 26.8707 120.495 26.4961L121.423 28.7707C121.027 29.0771 120.556 29.3077 120.005 29.4608C119.457 29.6141 118.898 29.6914 118.331 29.6914ZM111.324 15.9635H120.495V18.5197H111.324V15.9635Z" fill="#FFFDF9"/>
<path d="M124.101 15.8612H127.295V29.5117H124.101V15.8612ZM125.697 13.6113C125.097 13.6113 124.603 13.4242 124.216 13.0482C123.831 12.6738 123.638 12.2142 123.638 11.6681C123.638 11.1573 123.831 10.7133 124.216 10.3389C124.603 9.96433 125.097 9.77714 125.697 9.77714C126.299 9.77714 126.793 9.95193 127.178 10.3001C127.565 10.6499 127.758 11.097 127.758 11.6433C127.758 12.1878 127.57 12.6521 127.192 13.0358C126.814 13.4195 126.316 13.6113 125.697 13.6113Z" fill="#FFFDF9"/>
<path d="M136.697 29.6914C135.186 29.6914 134.019 29.303 133.194 28.5279C132.369 27.7526 131.957 26.6153 131.957 25.116V12.8442H135.152V25.0122C135.152 25.6607 135.323 26.1636 135.667 26.5209C136.01 26.88 136.491 27.0579 137.109 27.0579C137.813 27.0579 138.397 26.8707 138.861 26.4961L139.787 28.7707C139.393 29.0771 138.92 29.3077 138.372 29.4608C137.821 29.6141 137.263 29.6914 136.697 29.6914ZM129.69 15.9635H138.861V18.5197H129.69V15.9635Z" fill="#FFFDF9"/>
<path d="M148.263 29.6914C147.095 29.6914 146.064 29.4732 145.171 29.0399C144.278 28.6053 143.579 27.9398 143.073 27.0455C142.566 26.1512 142.312 25.0216 142.312 23.6583V15.8614H145.558V23.2484C145.558 24.4598 145.841 25.3667 146.407 25.9717C146.975 26.5767 147.764 26.88 148.777 26.88C149.533 26.88 150.194 26.7251 150.762 26.4188C151.328 26.1124 151.766 25.6513 152.075 25.0386C152.383 24.4243 152.539 23.666 152.539 22.764V15.8614H155.759V29.5119H152.694V25.806L153.235 26.9557C152.77 27.8253 152.092 28.4985 151.199 28.975C150.307 29.4531 149.328 29.6914 148.263 29.6914Z" fill="#FFFDF9"/>
<path d="M165.16 29.6914C163.649 29.6914 162.481 29.303 161.657 28.5279C160.832 27.7526 160.42 26.6153 160.42 25.116V12.8442H163.615V25.0122C163.615 25.6607 163.786 26.1636 164.129 26.5209C164.472 26.88 164.954 27.0579 165.572 27.0579C166.276 27.0579 166.86 26.8707 167.324 26.4961L168.25 28.7707C167.856 29.0771 167.383 29.3077 166.835 29.4608C166.284 29.6141 165.726 29.6914 165.16 29.6914ZM158.153 15.9635H167.324V18.5197H158.153V15.9635Z" fill="#FFFDF9"/>
</svg>
