<svg width="300" height="54" viewBox="0 0 300 54" fill="none" xmlns="http://www.w3.org/2000/svg">
<rect width="300" height="54" rx="27" fill="url(#paint0_linear_2525_16767)"/>
<path d="M21.616 33.144C20.716 33.144 19.852 33.012 19.024 32.748C18.208 32.472 17.554 32.106 17.062 31.65C16.882 31.482 16.792 31.272 16.792 31.02C16.792 30.852 16.84 30.708 16.936 30.588C17.032 30.456 17.146 30.39 17.278 30.39C17.434 30.39 17.602 30.456 17.782 30.588C18.898 31.452 20.17 31.884 21.598 31.884C22.63 31.884 23.422 31.686 23.974 31.29C24.526 30.894 24.802 30.33 24.802 29.598C24.802 29.178 24.67 28.842 24.406 28.59C24.142 28.326 23.794 28.116 23.362 27.96C22.93 27.804 22.348 27.642 21.616 27.474C20.632 27.246 19.822 27.006 19.186 26.754C18.562 26.502 18.052 26.142 17.656 25.674C17.272 25.206 17.08 24.594 17.08 23.838C17.08 23.118 17.272 22.482 17.656 21.93C18.052 21.366 18.598 20.934 19.294 20.634C20.002 20.322 20.806 20.166 21.706 20.166C22.546 20.166 23.326 20.298 24.046 20.562C24.778 20.814 25.39 21.18 25.882 21.66C26.074 21.852 26.17 22.062 26.17 22.29C26.17 22.458 26.122 22.608 26.026 22.74C25.93 22.86 25.816 22.92 25.684 22.92C25.552 22.92 25.378 22.854 25.162 22.722C24.574 22.242 24.028 21.906 23.524 21.714C23.02 21.522 22.414 21.426 21.706 21.426C20.71 21.426 19.936 21.636 19.384 22.056C18.832 22.464 18.556 23.04 18.556 23.784C18.556 24.42 18.796 24.9 19.276 25.224C19.768 25.536 20.518 25.812 21.526 26.052C22.618 26.316 23.476 26.562 24.1 26.79C24.724 27.006 25.24 27.336 25.648 27.78C26.068 28.224 26.278 28.818 26.278 29.562C26.278 30.27 26.08 30.894 25.684 31.434C25.3 31.974 24.754 32.394 24.046 32.694C23.338 32.994 22.528 33.144 21.616 33.144ZM29.4134 33.09C29.1854 33.09 29.0054 33.024 28.8734 32.892C28.7414 32.748 28.6754 32.562 28.6754 32.334V21.03C28.6754 20.814 28.7414 20.64 28.8734 20.508C29.0174 20.376 29.2034 20.31 29.4314 20.31H33.6974C35.0294 20.31 36.0614 20.634 36.7934 21.282C37.5374 21.93 37.9094 22.848 37.9094 24.036C37.9094 25.224 37.5374 26.148 36.7934 26.808C36.0494 27.468 35.0174 27.798 33.6974 27.798H30.1514V32.334C30.1514 32.562 30.0854 32.748 29.9534 32.892C29.8214 33.024 29.6414 33.09 29.4134 33.09ZM33.5534 26.574C35.4854 26.574 36.4514 25.728 36.4514 24.036C36.4514 22.368 35.4854 21.534 33.5534 21.534H30.1514V26.574H33.5534ZM41.0329 33C40.8049 33 40.6189 32.934 40.4749 32.802C40.3429 32.67 40.2769 32.496 40.2769 32.28V21.03C40.2769 20.814 40.3429 20.64 40.4749 20.508C40.6189 20.376 40.8049 20.31 41.0329 20.31H47.7649C47.9809 20.31 48.1489 20.364 48.2689 20.472C48.3889 20.58 48.4489 20.73 48.4489 20.922C48.4489 21.114 48.3889 21.264 48.2689 21.372C48.1489 21.48 47.9809 21.534 47.7649 21.534H41.7349V25.944H47.4049C47.6209 25.944 47.7889 25.998 47.9089 26.106C48.0289 26.214 48.0889 26.364 48.0889 26.556C48.0889 26.748 48.0289 26.898 47.9089 27.006C47.7889 27.114 47.6209 27.168 47.4049 27.168H41.7349V31.776H47.7649C47.9809 31.776 48.1489 31.83 48.2689 31.938C48.3889 32.034 48.4489 32.184 48.4489 32.388C48.4489 32.58 48.3889 32.73 48.2689 32.838C48.1489 32.946 47.9809 33 47.7649 33H41.0329ZM56.0652 33.144C54.8652 33.144 53.8272 32.886 52.9512 32.37C52.0752 31.842 51.3972 31.092 50.9172 30.12C50.4492 29.136 50.2152 27.978 50.2152 26.646C50.2152 25.326 50.4492 24.18 50.9172 23.208C51.3972 22.224 52.0752 21.474 52.9512 20.958C53.8272 20.43 54.8652 20.166 56.0652 20.166C56.8692 20.166 57.6252 20.298 58.3332 20.562C59.0532 20.814 59.6772 21.18 60.2052 21.66C60.3972 21.84 60.4932 22.05 60.4932 22.29C60.4932 22.458 60.4452 22.608 60.3492 22.74C60.2532 22.86 60.1392 22.92 60.0072 22.92C59.8632 22.92 59.6892 22.854 59.4852 22.722C58.8732 22.242 58.3152 21.906 57.8112 21.714C57.3192 21.522 56.7492 21.426 56.1012 21.426C54.7092 21.426 53.6352 21.882 52.8792 22.794C52.1352 23.694 51.7632 24.978 51.7632 26.646C51.7632 28.326 52.1352 29.622 52.8792 30.534C53.6352 31.434 54.7092 31.884 56.1012 31.884C56.7372 31.884 57.3072 31.788 57.8112 31.596C58.3152 31.404 58.8732 31.068 59.4852 30.588C59.6892 30.456 59.8632 30.39 60.0072 30.39C60.1392 30.39 60.2532 30.45 60.3492 30.57C60.4452 30.69 60.4932 30.84 60.4932 31.02C60.4932 31.26 60.3972 31.47 60.2052 31.65C59.6772 32.13 59.0532 32.502 58.3332 32.766C57.6252 33.018 56.8692 33.144 56.0652 33.144ZM63.6028 33.09C63.3748 33.09 63.1948 33.024 63.0628 32.892C62.9308 32.748 62.8648 32.562 62.8648 32.334V20.976C62.8648 20.748 62.9308 20.568 63.0628 20.436C63.1948 20.292 63.3748 20.22 63.6028 20.22C63.8308 20.22 64.0108 20.292 64.1428 20.436C64.2748 20.568 64.3408 20.748 64.3408 20.976V32.334C64.3408 32.562 64.2748 32.748 64.1428 32.892C64.0108 33.024 63.8308 33.09 63.6028 33.09ZM78.3963 32.154C78.4443 32.25 78.4683 32.352 78.4683 32.46C78.4683 32.64 78.3963 32.79 78.2523 32.91C78.1203 33.03 77.9583 33.09 77.7663 33.09C77.4663 33.09 77.2563 32.946 77.1363 32.658L75.8583 29.742H69.0723L67.7763 32.658C67.6563 32.946 67.4463 33.09 67.1463 33.09C66.9543 33.09 66.7863 33.03 66.6423 32.91C66.4983 32.778 66.4263 32.622 66.4263 32.442C66.4263 32.346 66.4503 32.25 66.4983 32.154L71.6463 20.706C71.7183 20.538 71.8263 20.412 71.9703 20.328C72.1143 20.244 72.2703 20.202 72.4383 20.202C72.6183 20.202 72.7803 20.25 72.9243 20.346C73.0683 20.43 73.1763 20.55 73.2483 20.706L78.3963 32.154ZM69.6123 28.518H75.3183L72.4563 22.056L69.6123 28.518ZM81.2684 33C81.0644 33 80.8904 32.94 80.7464 32.82C80.6144 32.688 80.5484 32.52 80.5484 32.316V20.976C80.5484 20.748 80.6144 20.568 80.7464 20.436C80.8784 20.292 81.0584 20.22 81.2864 20.22C81.5144 20.22 81.6944 20.292 81.8264 20.436C81.9584 20.568 82.0244 20.748 82.0244 20.976V31.74H87.8384C88.0544 31.74 88.2224 31.794 88.3424 31.902C88.4624 32.01 88.5224 32.166 88.5224 32.37C88.5224 32.574 88.4624 32.73 88.3424 32.838C88.2224 32.946 88.0544 33 87.8384 33H81.2684ZM95.6478 33.09C95.4198 33.09 95.2398 33.024 95.1078 32.892C94.9758 32.748 94.9098 32.562 94.9098 32.334V21.03C94.9098 20.814 94.9758 20.64 95.1078 20.508C95.2518 20.376 95.4378 20.31 95.6658 20.31H99.9318C101.264 20.31 102.296 20.634 103.028 21.282C103.772 21.93 104.144 22.848 104.144 24.036C104.144 25.224 103.772 26.148 103.028 26.808C102.284 27.468 101.252 27.798 99.9318 27.798H96.3858V32.334C96.3858 32.562 96.3198 32.748 96.1878 32.892C96.0558 33.024 95.8758 33.09 95.6478 33.09ZM99.7878 26.574C101.72 26.574 102.686 25.728 102.686 24.036C102.686 22.368 101.72 21.534 99.7878 21.534H96.3858V26.574H99.7878ZM116.195 32.082C116.279 32.214 116.321 32.352 116.321 32.496C116.321 32.676 116.249 32.826 116.105 32.946C115.973 33.054 115.817 33.108 115.637 33.108C115.361 33.108 115.145 32.988 114.989 32.748L112.577 28.932C112.265 28.44 111.941 28.104 111.605 27.924C111.269 27.732 110.813 27.636 110.237 27.636H107.969V32.334C107.969 32.562 107.903 32.748 107.771 32.892C107.639 33.024 107.465 33.09 107.249 33.09C107.021 33.09 106.841 33.024 106.709 32.892C106.577 32.748 106.511 32.562 106.511 32.334V21.03C106.511 20.814 106.577 20.64 106.709 20.508C106.853 20.376 107.039 20.31 107.267 20.31H111.731C113.111 20.31 114.161 20.616 114.881 21.228C115.613 21.84 115.979 22.74 115.979 23.928C115.979 24.936 115.685 25.746 115.097 26.358C114.521 26.97 113.693 27.342 112.613 27.474C112.913 27.57 113.183 27.726 113.423 27.942C113.663 28.158 113.903 28.458 114.143 28.842L116.195 32.082ZM111.605 26.412C112.589 26.412 113.321 26.208 113.801 25.8C114.293 25.392 114.539 24.774 114.539 23.946C114.539 23.13 114.299 22.524 113.819 22.128C113.339 21.732 112.601 21.534 111.605 21.534H107.969V26.412H111.605ZM119.589 33.09C119.361 33.09 119.181 33.024 119.049 32.892C118.917 32.748 118.851 32.562 118.851 32.334V20.976C118.851 20.748 118.917 20.568 119.049 20.436C119.181 20.292 119.361 20.22 119.589 20.22C119.817 20.22 119.997 20.292 120.129 20.436C120.261 20.568 120.327 20.748 120.327 20.976V32.334C120.327 32.562 120.261 32.748 120.129 32.892C119.997 33.024 119.817 33.09 119.589 33.09ZM128.839 33.144C127.639 33.144 126.601 32.886 125.725 32.37C124.849 31.842 124.171 31.092 123.691 30.12C123.223 29.136 122.989 27.978 122.989 26.646C122.989 25.326 123.223 24.18 123.691 23.208C124.171 22.224 124.849 21.474 125.725 20.958C126.601 20.43 127.639 20.166 128.839 20.166C129.643 20.166 130.399 20.298 131.107 20.562C131.827 20.814 132.451 21.18 132.979 21.66C133.171 21.84 133.267 22.05 133.267 22.29C133.267 22.458 133.219 22.608 133.123 22.74C133.027 22.86 132.913 22.92 132.781 22.92C132.637 22.92 132.463 22.854 132.259 22.722C131.647 22.242 131.089 21.906 130.585 21.714C130.093 21.522 129.523 21.426 128.875 21.426C127.483 21.426 126.409 21.882 125.653 22.794C124.909 23.694 124.537 24.978 124.537 26.646C124.537 28.326 124.909 29.622 125.653 30.534C126.409 31.434 127.483 31.884 128.875 31.884C129.511 31.884 130.081 31.788 130.585 31.596C131.089 31.404 131.647 31.068 132.259 30.588C132.463 30.456 132.637 30.39 132.781 30.39C132.913 30.39 133.027 30.45 133.123 30.57C133.219 30.69 133.267 30.84 133.267 31.02C133.267 31.26 133.171 31.47 132.979 31.65C132.451 32.13 131.827 32.502 131.107 32.766C130.399 33.018 129.643 33.144 128.839 33.144ZM136.394 33C136.166 33 135.98 32.934 135.836 32.802C135.704 32.67 135.638 32.496 135.638 32.28V21.03C135.638 20.814 135.704 20.64 135.836 20.508C135.98 20.376 136.166 20.31 136.394 20.31H143.126C143.342 20.31 143.51 20.364 143.63 20.472C143.75 20.58 143.81 20.73 143.81 20.922C143.81 21.114 143.75 21.264 143.63 21.372C143.51 21.48 143.342 21.534 143.126 21.534H137.096V25.944H142.766C142.982 25.944 143.15 25.998 143.27 26.106C143.39 26.214 143.45 26.364 143.45 26.556C143.45 26.748 143.39 26.898 143.27 27.006C143.15 27.114 142.982 27.168 142.766 27.168H137.096V31.776H143.126C143.342 31.776 143.51 31.83 143.63 31.938C143.75 32.034 143.81 32.184 143.81 32.388C143.81 32.58 143.75 32.73 143.63 32.838C143.51 32.946 143.342 33 143.126 33H136.394Z" fill="#003467"/>
<path d="M157.05 34.632C156.817 34.632 156.639 34.5713 156.518 34.45C156.397 34.3287 156.336 34.1513 156.336 33.918V22.746C156.336 22.5033 156.397 22.326 156.518 22.214C156.639 22.0927 156.817 22.032 157.05 22.032C157.274 22.032 157.447 22.0927 157.568 22.214C157.689 22.326 157.75 22.5033 157.75 22.746V33.918C157.75 34.394 157.517 34.632 157.05 34.632ZM168.288 32C168.036 32 167.84 31.9347 167.7 31.804C167.57 31.664 167.504 31.468 167.504 31.216V22.914C167.504 22.662 167.57 22.4707 167.7 22.34C167.84 22.2 168.036 22.13 168.288 22.13H173.398C173.594 22.13 173.744 22.1813 173.846 22.284C173.949 22.3773 174 22.5173 174 22.704C174 22.9 173.949 23.0493 173.846 23.152C173.744 23.2547 173.594 23.306 173.398 23.306H168.904V26.4H173.09C173.296 26.4 173.445 26.4513 173.538 26.554C173.641 26.6567 173.692 26.8013 173.692 26.988C173.692 27.184 173.641 27.3333 173.538 27.436C173.445 27.5293 173.296 27.576 173.09 27.576H168.904V30.824H173.398C173.594 30.824 173.744 30.8753 173.846 30.978C173.949 31.0807 174 31.2253 174 31.412C174 31.608 173.949 31.7573 173.846 31.86C173.744 31.9533 173.594 32 173.398 32H168.288ZM176.295 32.098C176.071 32.098 175.898 32.0373 175.777 31.916C175.655 31.7853 175.595 31.608 175.595 31.384V25.784C175.595 25.5507 175.655 25.3733 175.777 25.252C175.898 25.1307 176.066 25.07 176.281 25.07C176.505 25.07 176.673 25.1307 176.785 25.252C176.906 25.3733 176.967 25.5507 176.967 25.784V26.876L176.813 26.624C177.018 26.1013 177.34 25.7093 177.779 25.448C178.217 25.1773 178.721 25.042 179.291 25.042C179.832 25.042 180.28 25.1447 180.635 25.35C180.999 25.546 181.269 25.8493 181.447 26.26C181.624 26.6613 181.713 27.17 181.713 27.786V31.384C181.713 31.608 181.652 31.7853 181.531 31.916C181.409 32.0373 181.237 32.098 181.013 32.098C180.779 32.098 180.602 32.0373 180.481 31.916C180.359 31.7853 180.299 31.608 180.299 31.384V27.87C180.299 27.282 180.182 26.8527 179.949 26.582C179.725 26.3113 179.37 26.176 178.885 26.176C178.315 26.176 177.858 26.3533 177.513 26.708C177.177 27.0627 177.009 27.5387 177.009 28.136V31.384C177.009 31.86 176.771 32.098 176.295 32.098ZM186.265 32.126C185.668 32.126 185.14 31.986 184.683 31.706C184.235 31.4167 183.885 31.006 183.633 30.474C183.381 29.9327 183.255 29.3027 183.255 28.584C183.255 27.8467 183.381 27.2167 183.633 26.694C183.885 26.1713 184.235 25.7653 184.683 25.476C185.14 25.1867 185.668 25.042 186.265 25.042C186.862 25.042 187.376 25.1913 187.805 25.49C188.244 25.7793 188.538 26.1713 188.687 26.666H188.533V22.746C188.533 22.5127 188.594 22.3353 188.715 22.214C188.836 22.0927 189.009 22.032 189.233 22.032C189.457 22.032 189.63 22.0927 189.751 22.214C189.882 22.3353 189.947 22.5127 189.947 22.746V31.384C189.947 31.608 189.886 31.7853 189.765 31.916C189.644 32.0373 189.471 32.098 189.247 32.098C189.023 32.098 188.85 32.0373 188.729 31.916C188.608 31.7853 188.547 31.608 188.547 31.384V30.152L188.701 30.46C188.552 30.964 188.258 31.37 187.819 31.678C187.39 31.9767 186.872 32.126 186.265 32.126ZM186.629 31.034C187.012 31.034 187.348 30.9407 187.637 30.754C187.926 30.5673 188.15 30.292 188.309 29.928C188.477 29.564 188.561 29.116 188.561 28.584C188.561 27.7813 188.384 27.1747 188.029 26.764C187.674 26.3533 187.208 26.148 186.629 26.148C186.237 26.148 185.896 26.2413 185.607 26.428C185.318 26.6053 185.089 26.876 184.921 27.24C184.762 27.604 184.683 28.052 184.683 28.584C184.683 29.3773 184.86 29.984 185.215 30.404C185.57 30.824 186.041 31.034 186.629 31.034ZM194.326 32.126C193.916 32.126 193.491 32.0793 193.052 31.986C192.623 31.8927 192.226 31.734 191.862 31.51C191.741 31.426 191.657 31.3327 191.61 31.23C191.564 31.1273 191.545 31.0247 191.554 30.922C191.573 30.81 191.615 30.7167 191.68 30.642C191.755 30.558 191.844 30.5067 191.946 30.488C192.058 30.4693 192.175 30.4927 192.296 30.558C192.66 30.7633 193.01 30.908 193.346 30.992C193.682 31.0667 194.014 31.104 194.34 31.104C194.835 31.104 195.208 31.0153 195.46 30.838C195.712 30.6607 195.838 30.4227 195.838 30.124C195.838 29.8813 195.754 29.6947 195.586 29.564C195.418 29.424 195.166 29.3167 194.83 29.242L193.5 28.976C192.922 28.8547 192.483 28.64 192.184 28.332C191.886 28.024 191.736 27.632 191.736 27.156C191.736 26.7267 191.853 26.3533 192.086 26.036C192.32 25.7187 192.646 25.476 193.066 25.308C193.486 25.1307 193.972 25.042 194.522 25.042C194.933 25.042 195.32 25.0933 195.684 25.196C196.048 25.2987 196.384 25.4527 196.692 25.658C196.814 25.7233 196.893 25.812 196.93 25.924C196.968 26.0267 196.972 26.1293 196.944 26.232C196.926 26.3347 196.879 26.428 196.804 26.512C196.73 26.5867 196.636 26.6333 196.524 26.652C196.422 26.6613 196.305 26.6333 196.174 26.568C195.894 26.3907 195.614 26.2647 195.334 26.19C195.064 26.1153 194.793 26.078 194.522 26.078C194.028 26.078 193.654 26.1713 193.402 26.358C193.16 26.5353 193.038 26.778 193.038 27.086C193.038 27.3193 193.113 27.5107 193.262 27.66C193.412 27.8093 193.645 27.9167 193.962 27.982L195.292 28.248C195.899 28.3693 196.356 28.5747 196.664 28.864C196.982 29.1533 197.14 29.5453 197.14 30.04C197.14 30.684 196.884 31.1927 196.37 31.566C195.857 31.9393 195.176 32.126 194.326 32.126ZM203.105 32.084C202.881 32.084 202.708 32.0187 202.587 31.888C202.466 31.748 202.405 31.5567 202.405 31.314V25.854C202.405 25.6113 202.466 25.4247 202.587 25.294C202.708 25.1633 202.881 25.098 203.105 25.098C203.329 25.098 203.502 25.1633 203.623 25.294C203.754 25.4247 203.819 25.6113 203.819 25.854V31.314C203.819 31.5567 203.758 31.748 203.637 31.888C203.516 32.0187 203.338 32.084 203.105 32.084ZM203.105 23.642C202.825 23.642 202.606 23.572 202.447 23.432C202.298 23.292 202.223 23.096 202.223 22.844C202.223 22.5827 202.298 22.3867 202.447 22.256C202.606 22.116 202.825 22.046 203.105 22.046C203.385 22.046 203.6 22.116 203.749 22.256C203.908 22.3867 203.987 22.5827 203.987 22.844C203.987 23.096 203.908 23.292 203.749 23.432C203.6 23.572 203.385 23.642 203.105 23.642ZM206.509 32.098C206.285 32.098 206.113 32.0373 205.991 31.916C205.87 31.7853 205.809 31.608 205.809 31.384V25.784C205.809 25.5507 205.87 25.3733 205.991 25.252C206.113 25.1307 206.281 25.07 206.495 25.07C206.719 25.07 206.887 25.1307 206.999 25.252C207.121 25.3733 207.181 25.5507 207.181 25.784V26.876L207.027 26.624C207.233 26.1013 207.555 25.7093 207.993 25.448C208.432 25.1773 208.936 25.042 209.505 25.042C210.047 25.042 210.495 25.1447 210.849 25.35C211.213 25.546 211.484 25.8493 211.661 26.26C211.839 26.6613 211.927 27.17 211.927 27.786V31.384C211.927 31.608 211.867 31.7853 211.745 31.916C211.624 32.0373 211.451 32.098 211.227 32.098C210.994 32.098 210.817 32.0373 210.695 31.916C210.574 31.7853 210.513 31.608 210.513 31.384V27.87C210.513 27.282 210.397 26.8527 210.163 26.582C209.939 26.3113 209.585 26.176 209.099 26.176C208.53 26.176 208.073 26.3533 207.727 26.708C207.391 27.0627 207.223 27.5387 207.223 28.136V31.384C207.223 31.86 206.985 32.098 206.509 32.098Z" fill="#003467"/>
<path d="M227.727 29.9531H235.191V33H223.215V30.4805L227.516 26.1328C227.945 25.6875 228.332 25.2773 228.676 24.9023C229.027 24.5273 229.336 24.1914 229.602 23.8945C230.133 23.293 230.516 22.75 230.75 22.2656C230.992 21.7734 231.113 21.2461 231.113 20.6836C231.113 19.9961 230.926 19.4844 230.551 19.1484C230.176 18.8125 229.668 18.6445 229.027 18.6445C228.371 18.6445 227.73 18.7969 227.105 19.1016C226.48 19.4062 225.824 19.8398 225.137 20.4023L223.168 18.0703C223.41 17.8672 223.66 17.668 223.918 17.4727C224.176 17.2695 224.445 17.0742 224.727 16.8867C225.289 16.5117 225.934 16.207 226.66 15.9727C227.387 15.7383 228.262 15.6211 229.285 15.6211C230.41 15.6211 231.375 15.8242 232.18 16.2305C232.984 16.6367 233.605 17.1914 234.043 17.8945C234.488 18.5898 234.711 19.3789 234.711 20.2617C234.711 21.1914 234.523 22.0508 234.148 22.8398C233.773 23.6211 233.23 24.3984 232.52 25.1719C231.809 25.9453 230.949 26.793 229.941 27.7148L227.727 29.7891V29.9531ZM247.25 26.6367H249.312V29.4492H247.25V33H243.723V29.4492H236.398V26.9297L243.91 15.8672H247.25V26.6367ZM242.738 21.8906L239.586 26.6367H243.723V23.7305C243.723 23.5508 243.723 23.3477 243.723 23.1211C243.73 22.8945 243.738 22.6484 243.746 22.3828C243.762 21.8516 243.781 21.3594 243.805 20.9062C243.828 20.4531 243.848 20.1562 243.863 20.0156H243.77C243.621 20.3359 243.461 20.6484 243.289 20.9531C243.125 21.2578 242.941 21.5703 242.738 21.8906Z" fill="#003467"/>
<path d="M261.193 32.098C260.969 32.098 260.796 32.0373 260.675 31.916C260.554 31.7853 260.493 31.608 260.493 31.384V22.746C260.493 22.5127 260.554 22.3353 260.675 22.214C260.796 22.0927 260.969 22.032 261.193 22.032C261.417 22.032 261.59 22.0927 261.711 22.214C261.842 22.3353 261.907 22.5127 261.907 22.746V26.624H261.711C261.916 26.1013 262.238 25.7093 262.677 25.448C263.116 25.1773 263.62 25.042 264.189 25.042C264.73 25.042 265.178 25.1447 265.533 25.35C265.897 25.546 266.168 25.8493 266.345 26.26C266.522 26.6613 266.611 27.17 266.611 27.786V31.384C266.611 31.608 266.55 31.7853 266.429 31.916C266.308 32.0373 266.135 32.098 265.911 32.098C265.678 32.098 265.5 32.0373 265.379 31.916C265.258 31.7853 265.197 31.608 265.197 31.384V27.87C265.197 27.282 265.08 26.8527 264.847 26.582C264.623 26.3113 264.268 26.176 263.783 26.176C263.214 26.176 262.756 26.3533 262.411 26.708C262.075 27.0627 261.907 27.5387 261.907 28.136V31.384C261.907 31.86 261.669 32.098 261.193 32.098ZM269.273 32.098C269.04 32.098 268.863 32.0373 268.741 31.916C268.62 31.7853 268.559 31.608 268.559 31.384V25.784C268.559 25.5507 268.62 25.3733 268.741 25.252C268.863 25.1307 269.031 25.07 269.245 25.07C269.469 25.07 269.637 25.1307 269.749 25.252C269.871 25.3733 269.931 25.5507 269.931 25.784V26.806H269.791C269.941 26.246 270.216 25.8213 270.617 25.532C271.019 25.2427 271.532 25.0747 272.157 25.028C272.325 25.0187 272.456 25.0607 272.549 25.154C272.652 25.2473 272.708 25.392 272.717 25.588C272.736 25.784 272.694 25.9427 272.591 26.064C272.489 26.176 272.33 26.2413 272.115 26.26L271.849 26.288C271.243 26.344 270.781 26.5353 270.463 26.862C270.146 27.1887 269.987 27.6367 269.987 28.206V31.384C269.987 31.608 269.927 31.7853 269.805 31.916C269.693 32.0373 269.516 32.098 269.273 32.098ZM276.108 32.126C275.697 32.126 275.272 32.0793 274.834 31.986C274.404 31.8927 274.008 31.734 273.644 31.51C273.522 31.426 273.438 31.3327 273.392 31.23C273.345 31.1273 273.326 31.0247 273.336 30.922C273.354 30.81 273.396 30.7167 273.462 30.642C273.536 30.558 273.625 30.5067 273.728 30.488C273.84 30.4693 273.956 30.4927 274.078 30.558C274.442 30.7633 274.792 30.908 275.128 30.992C275.464 31.0667 275.795 31.104 276.122 31.104C276.616 31.104 276.99 31.0153 277.242 30.838C277.494 30.6607 277.62 30.4227 277.62 30.124C277.62 29.8813 277.536 29.6947 277.368 29.564C277.2 29.424 276.948 29.3167 276.612 29.242L275.282 28.976C274.703 28.8547 274.264 28.64 273.966 28.332C273.667 28.024 273.518 27.632 273.518 27.156C273.518 26.7267 273.634 26.3533 273.868 26.036C274.101 25.7187 274.428 25.476 274.848 25.308C275.268 25.1307 275.753 25.042 276.304 25.042C276.714 25.042 277.102 25.0933 277.466 25.196C277.83 25.2987 278.166 25.4527 278.474 25.658C278.595 25.7233 278.674 25.812 278.712 25.924C278.749 26.0267 278.754 26.1293 278.726 26.232C278.707 26.3347 278.66 26.428 278.586 26.512C278.511 26.5867 278.418 26.6333 278.306 26.652C278.203 26.6613 278.086 26.6333 277.956 26.568C277.676 26.3907 277.396 26.2647 277.116 26.19C276.845 26.1153 276.574 26.078 276.304 26.078C275.809 26.078 275.436 26.1713 275.184 26.358C274.941 26.5353 274.82 26.778 274.82 27.086C274.82 27.3193 274.894 27.5107 275.044 27.66C275.193 27.8093 275.426 27.9167 275.744 27.982L277.074 28.248C277.68 28.3693 278.138 28.5747 278.446 28.864C278.763 29.1533 278.922 29.5453 278.922 30.04C278.922 30.684 278.665 31.1927 278.152 31.566C277.638 31.9393 276.957 32.126 276.108 32.126Z" fill="#003467"/>
<defs>
<linearGradient id="paint0_linear_2525_16767" x1="-0.501669" y1="1.99998" x2="299.941" y2="54.3381" gradientUnits="userSpaceOnUse">
<stop stop-color="#F7AD19" stop-opacity="0.9"/>
<stop offset="1" stop-color="#A5F8D3" stop-opacity="0.9"/>
</linearGradient>
</defs>
</svg>
