<svg width="88" height="21" viewBox="0 0 88 21" fill="none" xmlns="http://www.w3.org/2000/svg">
<path d="M76.3982 4.90483L74.5416 15.7078C74.5346 15.7475 74.5371 15.7881 74.5489 15.8268C74.5607 15.8655 74.5815 15.9013 74.6098 15.9317C74.6381 15.9622 74.6732 15.9866 74.7128 16.0031C74.7523 16.0197 74.7953 16.028 74.8387 16.0275H77.0359C77.1134 16.0282 77.1886 16.003 77.2479 15.9567C77.3071 15.9104 77.3465 15.846 77.3589 15.7751L79.2155 4.97212C79.2225 4.93245 79.22 4.89185 79.2082 4.85317C79.1964 4.81449 79.1757 4.77866 79.1474 4.7482C79.119 4.71774 79.0839 4.69338 79.0443 4.67683C79.0048 4.66028 78.9618 4.65194 78.9184 4.6524H76.7212C76.6435 4.65098 76.5678 4.67581 76.5084 4.72226C76.4489 4.76871 76.4098 4.8336 76.3982 4.90483ZM74.052 8.0574H71.9672C71.8898 8.0567 71.8147 8.08174 71.7555 8.12798C71.6963 8.17423 71.657 8.2386 71.6447 8.3094L71.5757 8.70712C71.5757 8.70712 69.9565 7.08112 67.0897 8.17997C65.445 8.80912 64.6555 10.109 64.3195 11.0613C64.3195 11.0613 63.2533 13.9554 65.6648 15.5484C65.6648 15.5484 67.9009 17.0805 70.4188 15.4541L70.3753 15.7078C70.3652 15.7674 70.3765 15.8284 70.4074 15.8815C70.4384 15.9346 70.4872 15.9769 70.5465 16.0018C70.5859 16.019 70.6289 16.0275 70.6724 16.0275H72.7586C72.8363 16.029 72.912 16.0041 72.9714 15.9577C73.0308 15.9112 73.07 15.8463 73.0816 15.7751L74.3505 8.37712C74.3576 8.33749 74.3551 8.2969 74.3431 8.25828C74.3312 8.21966 74.3102 8.18399 74.2815 8.15383C74.2533 8.1231 74.218 8.0985 74.1784 8.08176C74.1387 8.06503 74.0956 8.05699 74.052 8.0574ZM70.9843 12.146C70.903 12.6629 70.6208 13.1345 70.1907 13.4724C69.7587 13.8115 69.209 13.9946 68.6427 13.988C68.4207 13.9904 68.1996 13.9606 67.9874 13.8997C67.0874 13.634 66.5737 12.8394 66.7213 11.978C66.8033 11.4613 67.0858 10.9901 67.5159 10.6524C67.9475 10.3131 68.4968 10.1294 69.0629 10.1351C69.285 10.133 69.5061 10.1631 69.7182 10.2243C70.6238 10.4883 71.1352 11.2841 70.9866 12.1464H70.9843V12.146ZM59.852 12.3504C60.9825 12.3504 62.0761 11.9784 62.935 11.3021C63.7921 10.6281 64.3596 9.69165 64.5343 8.66297C64.8994 6.52312 63.0812 4.6554 60.5036 4.6554H56.3512C56.2737 4.65471 56.1985 4.67982 56.1393 4.72615C56.0801 4.77247 56.0408 4.83695 56.0286 4.90783L54.1716 15.7108C54.1615 15.7704 54.1728 15.8314 54.2037 15.8845C54.2346 15.9376 54.2835 15.9799 54.3428 16.0048C54.3826 16.022 54.4252 16.0305 54.4687 16.0305H56.6673C56.7448 16.0312 56.8199 16.0061 56.8791 15.9598C56.9383 15.9135 56.9776 15.849 56.9898 15.7781L57.5349 12.6058C57.5464 12.5345 57.5855 12.4695 57.645 12.423C57.7044 12.3765 57.7801 12.3516 57.8579 12.353L59.852 12.3504ZM61.691 8.56569C61.5555 9.35683 60.89 9.93926 59.6169 9.93926H57.9894L58.4836 7.06226H60.082C61.3981 7.0644 61.8266 7.77797 61.691 8.56783V8.56569Z" fill="#0070E0"/>
<path d="M51.6666 8.24127L49.152 12.1434L47.8756 8.26998C47.8557 8.20817 47.8145 8.15404 47.7584 8.11578C47.7023 8.07751 47.6343 8.05717 47.5647 8.05784H45.2953C45.2366 8.0571 45.1795 8.07604 45.1347 8.11117C45.0899 8.14629 45.0603 8.19524 45.0514 8.24898C45.0459 8.28461 45.0498 8.32095 45.0629 8.35484L47.3499 14.8794L45.2814 17.954C45.2638 17.9793 45.252 18.0077 45.2467 18.0373C45.2414 18.067 45.2427 18.0974 45.2505 18.1266C45.2583 18.1558 45.2724 18.1832 45.2921 18.2072C45.3117 18.2312 45.3364 18.2512 45.3647 18.266C45.4025 18.2861 45.4455 18.2965 45.4892 18.296H47.9335C48.0032 18.2962 48.0719 18.2798 48.1328 18.2482C48.1936 18.2167 48.2447 18.1711 48.281 18.116L54.669 8.40155C54.6922 8.36772 54.7049 8.32868 54.7058 8.28864C54.7067 8.2486 54.6958 8.20909 54.6741 8.17441C54.6526 8.1396 54.6213 8.11079 54.5836 8.09097C54.5459 8.07114 54.5032 8.06104 54.4599 8.06169H52.0165C51.9464 8.0611 51.8773 8.07732 51.816 8.10879C51.7547 8.14026 51.7032 8.1859 51.6666 8.24127ZM44.0088 8.05784H41.9222C41.8445 8.05715 41.7692 8.0823 41.7099 8.12871C41.6507 8.17512 41.6113 8.2397 41.5991 8.31069L41.5316 8.70798C41.5316 8.70798 39.911 7.08198 37.0441 8.18084C35.3999 8.80998 34.61 10.1098 34.2754 11.0621C34.2754 11.0621 33.2083 13.9563 35.6193 15.5493C35.6193 15.5493 37.8558 17.0814 40.3737 15.455L40.3302 15.7087C40.32 15.7683 40.3312 15.8294 40.3622 15.8825C40.3931 15.9356 40.4421 15.9779 40.5015 16.0027C40.5408 16.0198 40.5838 16.0284 40.6273 16.0284H42.7135C42.7909 16.0289 42.866 16.0038 42.9252 15.9575C42.9843 15.9112 43.0237 15.8468 43.036 15.776L44.3054 8.37798C44.3157 8.3183 44.3046 8.25713 44.2736 8.20391C44.2427 8.15069 44.1937 8.1084 44.1342 8.08355C44.0947 8.06672 44.0522 8.05795 44.0088 8.05784ZM40.9406 12.1473C40.8585 12.6635 40.5762 13.1344 40.1465 13.472C39.7148 13.8111 39.1655 13.9946 38.5995 13.9888C38.3777 13.9911 38.157 13.9613 37.9451 13.9006C37.0455 13.6348 36.5323 12.8403 36.6799 11.9784C36.7622 11.4606 37.0457 10.9885 37.4773 10.6507C37.9105 10.3114 38.4616 10.1286 39.0289 10.136C39.2511 10.1338 39.4727 10.1638 39.6847 10.2251C40.5811 10.4891 41.0915 11.2846 40.9434 12.1473H40.9406ZM29.8088 12.3513C30.9374 12.3507 32.0291 11.9787 32.889 11.3017C33.7453 10.6277 34.3121 9.69157 34.4864 8.66341C34.852 6.52398 33.0333 4.65627 30.4567 4.65627H26.3038C26.2263 4.65555 26.1511 4.68058 26.0919 4.72681C26.0326 4.77305 25.9932 4.83742 25.9808 4.90827L24.1297 15.7083C24.1194 15.7679 24.1306 15.8291 24.1615 15.8823C24.1924 15.9356 24.2415 15.9778 24.301 16.0027C24.3403 16.0194 24.3833 16.0284 24.4268 16.0284H26.624C26.7017 16.0291 26.777 16.0039 26.8363 15.9575C26.8955 15.9111 26.9349 15.8465 26.9471 15.7756L27.4913 12.6033C27.5028 12.532 27.542 12.4671 27.6014 12.4207C27.6609 12.3742 27.7365 12.3494 27.8143 12.3508L29.8088 12.3513ZM31.6478 8.56612C31.5122 9.35727 30.8472 9.93969 29.5742 9.93969H27.9466L28.4399 7.06269H30.0383C31.3549 7.06484 31.783 7.77884 31.6478 8.56827V8.56612Z" fill="#003467"/>
<path d="M15.6041 5.21152C15.6536 2.82609 13.529 0.996094 10.6076 0.996094H4.5648C4.42398 0.996032 4.28777 1.04254 4.1807 1.12724C4.07363 1.21195 4.00273 1.32928 3.98079 1.45809L1.5596 15.4694C1.54876 15.5329 1.55292 15.5978 1.57177 15.6596C1.59063 15.7215 1.62374 15.7789 1.66882 15.8277C1.7139 15.8766 1.76988 15.9159 1.83291 15.9428C1.89594 15.9697 1.96452 15.9836 2.03393 15.9837H5.61389L5.05441 19.2279C5.04357 19.2914 5.04773 19.3564 5.06658 19.4182C5.08544 19.4801 5.11854 19.5374 5.16362 19.5863C5.2087 19.6352 5.26469 19.6744 5.32772 19.7013C5.39075 19.7283 5.45933 19.7422 5.52874 19.7422H8.44509C8.58577 19.7422 8.71118 19.6955 8.81854 19.6111C8.92498 19.5262 8.94257 19.4092 8.96478 19.2802L9.82089 14.6157C9.84264 14.4871 9.91345 14.3199 10.0203 14.2351C10.1272 14.1502 10.2207 14.1039 10.3619 14.1039H12.1463C15.0076 14.1039 17.4348 12.2204 17.8786 9.60095C18.1928 7.74181 17.332 6.05024 15.6041 5.21152Z" fill="#001C64"/>
<path d="M6.38915 10.8162L5.4974 16.0525L4.93745 19.3371C4.92669 19.4006 4.93091 19.4655 4.94982 19.5273C4.96874 19.5892 5.0019 19.6465 5.04702 19.6953C5.09215 19.7441 5.14816 19.7833 5.21121 19.8102C5.27426 19.8371 5.34285 19.851 5.41225 19.8509H8.4989C8.63958 19.8509 8.77562 19.8043 8.88252 19.7196C8.98942 19.6349 9.06016 19.5176 9.08199 19.3889L9.89553 14.6151C9.91746 14.4863 9.98829 14.3691 10.0953 14.2844C10.2022 14.1997 10.3383 14.1531 10.4791 14.1531H12.2959C15.1572 14.1531 17.5844 12.2202 18.0286 9.60079C18.3433 7.74165 17.3326 6.04965 15.6047 5.21094C15.6 5.40894 15.5815 5.60651 15.5487 5.80237C15.1049 8.42094 12.6768 10.3542 9.8164 10.3542H6.9727C6.83192 10.3544 6.69581 10.401 6.58885 10.4858C6.48188 10.5705 6.41107 10.6874 6.38915 10.8162Z" fill="#0070E0"/>
<path d="M5.49668 16.0529H1.90562C1.83622 16.0528 1.76766 16.0389 1.70464 16.012C1.64163 15.9851 1.58567 15.9458 1.54062 15.8969C1.49558 15.848 1.46252 15.7907 1.44372 15.7288C1.42492 15.6669 1.42084 15.602 1.43175 15.5386L3.85294 1.31942C3.87487 1.19068 3.9457 1.07341 4.05267 0.988712C4.15965 0.904018 4.29575 0.857463 4.43649 0.857422H10.6079C13.5294 0.857422 15.6539 2.82628 15.6044 5.21128C14.8774 4.85814 14.0231 4.65628 13.0874 4.65628H7.9424C7.80158 4.65622 7.66537 4.70273 7.5583 4.78743C7.45123 4.87213 7.38033 4.98946 7.35839 5.11828L6.38936 10.8166L5.49622 16.0529H5.49668Z" fill="#003467"/>
</svg>
