<svg width="161" height="97" viewBox="0 0 161 97" fill="none" xmlns="http://www.w3.org/2000/svg">
<path d="M11.7931 36.914C19.3631 26.7427 29.5901 18.7509 43.2457 17.9552C55.5715 17.2371 65.9335 23.8721 62.3449 37.2199C60.6462 43.5385 54.3069 49.5758 47.1905 48.5108C39.2623 47.3243 41.5072 37.3528 44.9289 33.6074C52.9204 24.8595 68.0169 23.0284 78.9643 31.7215C91.9284 42.0162 80.3508 52.7927 80.3029 52.6912" stroke="#003467" stroke-width="3" stroke-miterlimit="1.5" stroke-linecap="round" stroke-linejoin="round"/>
<path d="M8.89057 22.369C9.75374 23.6026 10.037 25.0195 10.3915 26.4244C11.5558 31.0372 11.3574 36.2674 9.0234 40.2639C12.8439 37.0461 18.9895 34.2396 24.2311 36.1425" stroke="#003467" stroke-width="3" stroke-miterlimit="1.5" stroke-linecap="round" stroke-linejoin="round"/>
<path d="M34.4729 88.1804C33.9175 88.2786 33.3656 88.3275 32.8171 88.3269C32.2687 88.3264 31.7483 88.2783 31.2561 88.1825C30.7758 88.0846 30.3284 87.9322 29.914 87.7252C29.7534 87.6439 29.6321 87.5435 29.55 87.4239C29.4777 87.2905 29.4418 87.1567 29.4425 87.0225C29.4529 86.8745 29.4911 86.7458 29.5571 86.6367C29.6349 86.5254 29.7377 86.4524 29.8656 86.4176C29.9935 86.3828 30.1427 86.3991 30.313 86.4665C30.9116 86.7506 31.5279 86.928 32.1619 86.9987C32.7938 87.0576 33.4879 87.0202 34.2441 86.8865C35.3076 86.6985 36.059 86.3646 36.4982 85.8848C36.9471 85.3911 37.1141 84.8193 36.9992 84.1694C36.9052 83.6376 36.643 83.2574 36.2126 83.0289C35.792 82.7864 35.1288 82.6538 34.223 82.6312L32.3138 82.5849C31.1612 82.5449 30.2602 82.3082 29.6108 81.8746C28.9712 81.4271 28.5719 80.7544 28.4132 79.8563C28.315 79.3009 28.3384 78.7788 28.4836 78.2901C28.6266 77.7896 28.8708 77.3442 29.2162 76.9542C29.5595 76.5523 29.9931 76.2136 30.5172 75.9382C31.0412 75.6627 31.64 75.4654 32.3136 75.3464C33.058 75.2148 33.7681 75.1989 34.4438 75.2988C35.1293 75.3848 35.7685 75.5886 36.3616 75.9102C36.5103 75.9936 36.6209 76.102 36.6932 76.2355C36.7635 76.3571 36.7924 76.486 36.7799 76.6223C36.7653 76.7467 36.7181 76.8586 36.6382 76.9581C36.5701 77.0554 36.4662 77.1225 36.3265 77.1594C36.1986 77.1942 36.0425 77.1731 35.8583 77.096C35.323 76.825 34.7876 76.6577 34.2524 76.5939C33.715 76.5183 33.1391 76.5348 32.5246 76.6434C31.8983 76.7542 31.3715 76.9448 30.944 77.2153C30.5284 77.4838 30.223 77.8242 30.0278 78.2364C29.8423 78.6348 29.7914 79.0703 29.8749 79.543C29.9752 80.1102 30.226 80.529 30.6271 80.7992C31.0401 81.0674 31.6561 81.2084 32.475 81.222L34.3873 81.286C35.6247 81.3232 36.5719 81.5457 37.2289 81.9535C37.8957 82.3475 38.3053 82.9757 38.4578 83.8384C38.5497 84.3583 38.528 84.8557 38.3926 85.3305C38.2572 85.8053 38.0168 86.2378 37.6715 86.6279C37.324 87.0061 36.8813 87.3281 36.3433 87.5938C35.8054 87.8595 35.1819 88.0551 34.4729 88.1804ZM43.8536 86.522C43.2628 86.6264 42.7112 86.6082 42.1988 86.4672C41.6962 86.3124 41.2735 86.0581 40.9307 85.7043C40.5878 85.3506 40.3726 84.9256 40.2848 84.4293C40.172 83.7912 40.2427 83.2608 40.497 82.8381C40.7631 82.4133 41.2548 82.0582 41.9721 81.773C42.7012 81.4857 43.7157 81.2271 45.0156 80.9973L45.8132 80.8563L45.9793 81.7957L45.1994 81.9336C44.2422 82.1028 43.4943 82.2838 42.9556 82.4765C42.4267 82.6553 42.0688 82.8709 41.8818 83.1233C41.7067 83.3736 41.6537 83.6938 41.7226 84.0837C41.8083 84.5682 42.0437 84.9348 42.4289 85.1836C42.8259 85.4302 43.3139 85.5024 43.8929 85.4C44.3656 85.3164 44.7593 85.131 45.0741 84.8438C45.4008 84.5546 45.63 84.1972 45.762 83.7717C45.9057 83.3442 45.9327 82.8763 45.8429 82.3682L45.4856 80.3475C45.3561 79.6149 45.1154 79.1152 44.7636 78.8483C44.4097 78.5697 43.8959 78.4899 43.2224 78.609C42.8088 78.6821 42.4046 78.8084 42.0098 78.9879C41.6151 79.1674 41.2081 79.416 40.7891 79.7338C40.6382 79.8458 40.5017 79.9004 40.3793 79.8977C40.2549 79.8831 40.1489 79.8348 40.0612 79.7528C39.9736 79.6708 39.9135 79.5718 39.8808 79.4557C39.846 79.3278 39.8477 79.1996 39.8859 79.0709C39.9359 78.9402 40.0255 78.8269 40.1548 78.7309C40.6287 78.379 41.1093 78.0991 41.5966 77.8911C42.0838 77.6831 42.5578 77.5384 43.0187 77.4569C43.7632 77.3253 44.3996 77.3407 44.9279 77.5032C45.4542 77.6539 45.8794 77.9565 46.2034 78.411C46.5254 78.8537 46.7543 79.4591 46.8901 80.2272L47.7394 85.0307C47.7811 85.267 47.7544 85.4606 47.6593 85.6115C47.5759 85.7603 47.4278 85.8535 47.2151 85.8911C46.9906 85.9308 46.8078 85.8961 46.6666 85.787C46.5255 85.6779 46.434 85.5052 46.3923 85.2689L46.1478 83.8863L46.3073 83.8581C46.2922 84.3238 46.1769 84.7403 45.9616 85.1074C45.758 85.4724 45.4769 85.778 45.1183 86.0242C44.7597 86.2704 44.3381 86.4363 43.8536 86.522ZM53.6563 84.7523C53.4554 84.7878 53.2688 84.766 53.0963 84.6868C52.9218 84.5958 52.7605 84.4415 52.6124 84.224L48.2799 77.6052C48.1658 77.4426 48.1071 77.2824 48.1035 77.1246C48.1 76.9668 48.149 76.8301 48.2504 76.7147C48.3519 76.5993 48.509 76.5228 48.7217 76.4852C48.9107 76.4518 49.0657 76.467 49.1867 76.5309C49.3077 76.5948 49.4283 76.7258 49.5487 76.9239L53.7122 83.5177L53.2336 83.6023L54.9371 75.9712C54.9822 75.7439 55.0506 75.5795 55.1424 75.478C55.2341 75.3765 55.3804 75.3079 55.5813 75.2724C55.7703 75.239 55.9205 75.2612 56.0317 75.339C56.1548 75.4147 56.2358 75.5284 56.2748 75.6799C56.3235 75.8175 56.3281 75.9812 56.2885 76.171L54.4558 83.8981C54.4148 84.1491 54.3221 84.3482 54.1776 84.4957C54.0427 84.6292 53.869 84.7147 53.6563 84.7523ZM63.3371 83.0773C62.4273 83.2382 61.6101 83.1999 60.8857 82.9624C60.171 82.711 59.572 82.2868 59.0887 81.6898C58.6172 81.0907 58.3 80.3303 58.137 79.4086C57.9783 78.5106 58.0176 77.6993 58.2551 76.9749C58.4905 76.2387 58.8821 75.6272 59.4297 75.1404C59.9891 74.6516 60.6765 74.335 61.4919 74.1909C62.0709 74.0885 62.6086 74.097 63.105 74.2165C63.5992 74.324 64.0383 74.5328 64.4221 74.8427C64.8177 75.1505 65.1442 75.5498 65.4016 76.0405C65.6708 76.5291 65.8628 77.0983 65.9777 77.7483C66.0111 77.9373 65.983 78.0885 65.8934 78.2019C65.8017 78.3034 65.6553 78.3719 65.4545 78.4074L59.2861 79.498L59.12 78.5585L64.9516 77.5275L64.7087 77.8081C64.5959 77.17 64.4063 76.649 64.14 76.2452C63.8715 75.8296 63.5332 75.536 63.1251 75.3645C62.7288 75.1908 62.2589 75.152 61.7153 75.2481C61.1127 75.3547 60.6237 75.5874 60.2485 75.9462C59.8829 76.2911 59.6377 76.7305 59.5127 77.2644C59.3857 77.7865 59.3796 78.3725 59.4945 79.0224L59.5133 79.1288C59.7055 80.2159 60.1117 80.9971 60.7319 81.4724C61.364 81.9456 62.1645 82.0965 63.1335 81.9252C63.5352 81.8542 63.9217 81.731 64.2928 81.5557C64.6758 81.3783 65.0344 81.1322 65.3687 80.8172C65.5153 80.6816 65.6547 80.6082 65.7867 80.597C65.9285 80.5719 66.0481 80.5934 66.1455 80.6615C66.2407 80.7178 66.3106 80.803 66.3551 80.9169C66.4094 81.017 66.4184 81.1373 66.3823 81.2777C66.3581 81.4161 66.2775 81.5461 66.1406 81.6678C65.8007 82.0203 65.3785 82.3204 64.8739 82.568C64.3693 82.8157 63.8571 82.9854 63.3371 83.0773ZM74.3701 80.9623C74.1101 81.0082 73.9047 80.9836 73.7538 80.8884C73.6127 80.7793 73.5233 80.6184 73.4857 80.4057C73.4627 80.2757 73.4703 80.1464 73.5085 80.0178C73.5565 79.8753 73.628 79.7286 73.7232 79.5777L76.9415 74.6218C77.4293 73.8653 77.7551 73.1923 77.9189 72.6028C78.0925 71.9993 78.1292 71.414 78.0289 70.8468C77.9036 70.1378 77.5899 69.6388 77.0879 69.3498C76.5957 69.0468 75.936 68.9685 75.1088 69.1147C74.577 69.2087 74.0894 69.3802 73.646 69.6292C73.2026 69.8782 72.7926 70.2127 72.4159 70.6327C72.2832 70.778 72.1508 70.8563 72.0187 70.8675C71.8985 70.8765 71.7838 70.8481 71.6746 70.7821C71.5655 70.7161 71.4817 70.6212 71.4232 70.4975C71.3648 70.3738 71.3418 70.2438 71.3543 70.1075C71.3786 69.9692 71.4522 69.8343 71.5752 69.7029C71.9692 69.2433 72.4713 68.8438 73.0816 68.5043C73.6897 68.1531 74.3305 67.9179 75.0041 67.7989C75.8431 67.6505 76.5751 67.6552 77.2001 67.8128C77.825 67.9704 78.3302 68.2771 78.7154 68.733C79.0986 69.1771 79.3539 69.7595 79.4813 70.4803C79.569 70.9766 79.573 71.4817 79.4933 71.9954C79.4232 72.4952 79.2666 73.0225 79.0235 73.5773C78.7922 74.1301 78.4636 74.7182 78.0376 75.3419L74.9673 79.9976L74.8952 79.5899L80.8686 78.5338C81.0931 78.4941 81.2679 78.518 81.3931 78.6056C81.528 78.6792 81.6132 78.8165 81.6487 79.0174C81.6863 79.2301 81.6554 79.4001 81.556 79.5273C81.4685 79.6525 81.3124 79.7349 81.0879 79.7746L74.3701 80.9623ZM88.0575 78.7069C86.6276 78.9597 85.4433 78.6024 84.5046 77.6351C83.5658 76.6677 82.9126 75.1442 82.5449 73.0644C82.2984 71.6701 82.257 70.471 82.4208 69.4671C82.5824 68.4515 82.9454 67.6439 83.5096 67.0446C84.0857 66.4431 84.8464 66.0588 85.7918 65.8916C87.2334 65.6368 88.4167 65.9881 89.3415 66.9457C90.2761 67.8895 90.9282 69.4071 91.298 71.4987C91.5445 72.893 91.587 74.098 91.4253 75.1137C91.2637 76.1293 90.9018 76.9428 90.3396 77.554C89.7753 78.1534 89.0146 78.5377 88.0575 78.7069ZM87.835 77.4484C88.8276 77.2729 89.486 76.7239 89.8104 75.8014C90.1444 74.8649 90.1558 73.5163 89.8446 71.7556C89.5312 69.9831 89.0602 68.732 88.4315 68.0023C87.8126 67.2587 87.0069 66.9746 86.0143 67.1501C85.0335 67.3235 84.374 67.8666 84.0357 68.7795C83.6975 69.6923 83.684 71.0291 83.9953 72.7897C84.3065 74.5504 84.7796 75.8134 85.4145 76.5785C86.0474 77.3318 86.8542 77.6218 87.835 77.4484ZM98.6605 76.6861C98.605 76.8543 98.5223 76.9725 98.4125 77.0407C98.3048 77.1207 98.1887 77.1534 98.0642 77.1388C97.9419 77.1361 97.831 77.0947 97.7316 77.0148C97.6342 76.9467 97.5623 76.8498 97.5156 76.724C97.4808 76.5961 97.4912 76.448 97.5468 76.2798L102.283 63.1589C102.338 62.9906 102.421 62.8724 102.531 62.8043C102.639 62.7243 102.755 62.6916 102.879 62.7062C103.001 62.7089 103.112 62.7502 103.212 62.8301C103.311 62.91 103.378 63.0139 103.413 63.1418C103.46 63.2676 103.454 63.4088 103.397 63.5652L98.6605 76.6861ZM96.462 71.9018C95.5167 72.0689 94.7186 71.8627 94.0678 71.2832C93.4169 70.7036 92.985 69.8112 92.7719 68.6059C92.6298 67.8023 92.6268 67.0961 92.7629 66.4871C92.9107 65.876 93.1831 65.3831 93.5799 65.0083C93.9746 64.6216 94.4851 64.373 95.1114 64.2622C96.0449 64.0972 96.8371 64.3045 97.4879 64.884C98.1485 65.4496 98.5853 66.3351 98.7984 67.5404C98.9405 68.344 98.9376 69.0513 98.7897 69.6623C98.6536 70.2713 98.3883 70.7691 97.9935 71.1558C97.5988 71.5424 97.0883 71.791 96.462 71.9018ZM96.2771 70.856C96.6435 70.7912 96.9378 70.6295 97.1602 70.3709C97.3943 70.1101 97.5458 69.7604 97.6145 69.3217C97.6831 68.8831 97.6642 68.3624 97.5577 67.7598C97.3947 66.8381 97.113 66.175 96.7124 65.7705C96.3119 65.3661 95.8398 65.2119 95.2963 65.308C94.93 65.3728 94.6297 65.5356 94.3955 65.7963C94.1711 66.0431 94.0245 66.3859 93.9558 66.8246C93.8851 67.2514 93.904 67.7721 94.0126 68.3865C94.1756 69.3082 94.4525 69.9783 94.8433 70.3966C95.2438 70.8011 95.7217 70.9542 96.2771 70.856ZM105.847 75.5619C104.913 75.7269 104.115 75.5207 103.452 74.9432C102.801 74.3637 102.369 73.4713 102.156 72.266C102.014 71.4624 102.011 70.7562 102.147 70.1472C102.295 69.5361 102.568 69.0432 102.964 68.6684C103.371 68.2796 103.881 68.031 104.496 67.9223C105.441 67.7552 106.239 67.9614 106.89 68.541C107.539 69.1087 107.97 69.9952 108.183 71.2005C108.325 72.004 108.329 72.7162 108.195 73.337C108.059 73.946 107.794 74.4438 107.399 74.8304C107.002 75.2052 106.485 75.449 105.847 75.5619ZM105.662 74.5161C106.04 74.4492 106.341 74.2924 106.566 74.0455C106.788 73.7869 106.933 73.4382 107.002 72.9996C107.071 72.5609 107.051 72.0343 106.942 71.4199C106.779 70.4982 106.497 69.8351 106.097 69.4306C105.708 69.0241 105.236 68.8699 104.681 68.9681C104.314 69.0329 104.014 69.1956 103.78 69.4564C103.556 69.7032 103.409 70.046 103.34 70.4846C103.281 70.9094 103.306 71.429 103.415 72.0435C103.58 72.977 103.857 73.647 104.246 74.0536C104.646 74.458 105.118 74.6122 105.662 74.5161ZM116.502 73.6415C116.266 73.6833 116.077 73.6496 115.936 73.5405C115.795 73.4314 115.703 73.2587 115.661 73.0224L114.355 65.631C114.313 65.3947 114.341 65.207 114.438 65.0679C114.533 64.917 114.693 64.8217 114.917 64.782C115.142 64.7424 115.325 64.7771 115.466 64.8861C115.617 64.9813 115.713 65.1471 115.755 65.3834L116.031 66.9432L115.792 66.7296C115.899 66.0281 116.17 65.4563 116.603 65.014C117.047 64.5579 117.617 64.2682 118.314 64.1449C119.047 64.0154 119.669 64.0882 120.181 64.3633C120.702 64.6245 121.105 65.1079 121.388 65.8133L121.122 65.8603C121.218 65.161 121.504 64.5742 121.98 64.1C122.467 63.6118 123.076 63.303 123.809 63.1735C124.459 63.0586 125.013 63.0886 125.47 63.2637C125.939 63.4366 126.325 63.7583 126.628 64.2288C126.928 64.6875 127.146 65.3009 127.282 66.069L128.122 70.8194C128.164 71.0557 128.131 71.2503 128.024 71.4033C127.929 71.5542 127.763 71.6505 127.527 71.6923C127.302 71.732 127.114 71.6983 126.961 71.5913C126.82 71.4822 126.728 71.3095 126.686 71.0732L125.859 66.3938C125.719 65.602 125.481 65.047 125.144 64.7288C124.806 64.3987 124.311 64.2911 123.661 64.406C122.952 64.5313 122.435 64.8787 122.109 65.4482C121.793 66.0037 121.709 66.7009 121.857 67.5399L122.61 71.7939C122.651 72.0303 122.619 72.2249 122.512 72.3779C122.417 72.5288 122.251 72.6251 122.014 72.6669C121.79 72.7066 121.601 72.6729 121.448 72.5659C121.307 72.4568 121.216 72.2841 121.174 72.0478L120.347 67.3683C120.207 66.5766 119.962 66.0227 119.614 65.7065C119.275 65.3764 118.787 65.2678 118.149 65.3806C117.44 65.5059 116.922 65.8533 116.597 66.4227C116.281 66.9783 116.197 67.6755 116.345 68.5145L117.097 72.7685C117.185 73.2648 116.986 73.5558 116.502 73.6415ZM134.525 70.4917C133.686 70.64 132.927 70.5853 132.247 70.3276C131.568 70.0699 130.999 69.6405 130.539 69.0394C130.089 68.4243 129.784 67.6618 129.623 66.752C129.502 66.0666 129.488 65.4354 129.581 64.8584C129.671 64.2696 129.866 63.7478 130.163 63.2931C130.46 62.8384 130.839 62.4667 131.3 62.1781C131.771 61.8756 132.319 61.6689 132.945 61.5582C133.784 61.4099 134.544 61.4645 135.223 61.7222C135.902 61.9799 136.467 62.4163 136.917 63.0313C137.376 63.6325 137.686 64.388 137.847 65.2979C137.969 65.9833 137.983 66.6145 137.89 67.1915C137.797 67.7685 137.603 68.2902 137.307 68.7568C137.01 69.2115 136.626 69.5901 136.155 69.8926C135.695 70.1813 135.151 70.3809 134.525 70.4917ZM134.321 69.3395C134.853 69.2455 135.297 69.033 135.652 68.702C136.008 68.371 136.249 67.9386 136.374 67.4046C136.51 66.8687 136.517 66.2521 136.394 65.5549C136.204 64.4795 135.816 63.7011 135.232 63.2196C134.659 62.7359 133.964 62.5662 133.149 62.7103C132.606 62.8064 132.156 63.02 131.8 63.351C131.454 63.6681 131.213 64.0946 131.076 64.6306C130.949 65.1527 130.949 65.7742 131.076 66.495C131.264 67.5585 131.652 68.3369 132.239 68.8303C132.823 69.3118 133.518 69.4816 134.321 69.3395ZM141.514 69.2194C141.278 69.2612 141.083 69.2286 140.93 69.1216C140.789 69.0125 140.697 68.8398 140.656 68.6035L139.349 61.2121C139.307 60.9758 139.335 60.7881 139.432 60.649C139.527 60.4981 139.687 60.4028 139.912 60.3631C140.136 60.3235 140.319 60.3582 140.46 60.4672C140.611 60.5624 140.707 60.7282 140.749 60.9645L141.003 62.4003L140.826 62.4316C140.892 61.701 141.157 61.0996 141.622 60.6275C142.087 60.1553 142.707 59.8385 143.483 59.677C143.658 59.6338 143.807 59.6501 143.93 59.7258C144.051 59.7897 144.136 59.927 144.186 60.1376C144.233 60.3364 144.214 60.5043 144.129 60.6413C144.043 60.7782 143.89 60.8784 143.67 60.9417L143.392 61.0273C142.601 61.2403 142.027 61.6099 141.669 62.1362C141.321 62.6487 141.215 63.2889 141.351 64.057L142.109 68.3465C142.151 68.5828 142.118 68.7775 142.011 68.9305C141.916 69.0813 141.75 69.1777 141.514 69.2194ZM150.924 67.5923C150.014 67.7532 149.197 67.7149 148.473 67.4774C147.758 67.2259 147.159 66.8017 146.676 66.2048C146.204 65.6057 145.887 64.8453 145.724 63.9236C145.565 63.0255 145.605 62.2143 145.842 61.4899C146.078 60.7537 146.469 60.1422 147.017 59.6554C147.576 59.1665 148.264 58.85 149.079 58.7059C149.658 58.6035 150.196 58.612 150.692 58.7314C151.186 58.839 151.625 59.0478 152.009 59.3577C152.405 59.6655 152.731 60.0648 152.989 60.5555C153.258 61.0441 153.45 61.6133 153.565 62.2632C153.598 62.4523 153.57 62.6035 153.48 62.7168C153.389 62.8184 153.242 62.8869 153.041 62.9224L146.873 64.0129L146.707 63.0735L152.539 62.0425L152.296 62.3231C152.183 61.685 151.993 61.164 151.727 60.7602C151.459 60.3446 151.12 60.051 150.712 59.8794C150.316 59.7058 149.846 59.667 149.302 59.7631C148.7 59.8697 148.211 60.1023 147.835 60.4611C147.47 60.8061 147.225 61.2455 147.1 61.7794C146.973 62.3015 146.967 62.8875 147.082 63.5374L147.1 63.6437C147.293 64.7309 147.699 65.5121 148.319 65.9874C148.951 66.4606 149.751 66.6115 150.72 66.4402C151.122 66.3692 151.509 66.246 151.88 66.0707C152.263 65.8933 152.621 65.6471 152.956 65.3321C153.102 65.1965 153.242 65.1231 153.374 65.112C153.516 65.0869 153.635 65.1084 153.732 65.1765C153.828 65.2328 153.898 65.3179 153.942 65.4319C153.996 65.532 154.005 65.6523 153.969 65.7927C153.945 65.931 153.864 66.061 153.728 66.1827C153.388 66.5353 152.966 66.8354 152.461 67.083C151.956 67.3306 151.444 67.5004 150.924 67.5923ZM156.578 63.1562C156.436 63.1813 156.31 63.1549 156.199 63.0771C156.099 62.9972 156.027 62.8637 155.982 62.6768L154.223 54.7986C154.161 54.5171 154.187 54.2811 154.299 54.0906C154.421 53.8861 154.624 53.7589 154.908 53.7087C155.18 53.6607 155.402 53.7127 155.575 53.8649C155.746 54.0053 155.851 54.2183 155.889 54.504L156.939 62.5075C156.972 62.6966 156.956 62.8457 156.89 62.9549C156.824 63.064 156.72 63.1312 156.578 63.1562ZM157.152 66.3999C156.856 66.4521 156.604 66.4053 156.396 66.2594C156.185 66.1017 156.055 65.881 156.005 65.5974C155.954 65.3138 156.002 65.0677 156.148 64.8591C156.292 64.6387 156.512 64.5024 156.807 64.4502C157.102 64.3979 157.35 64.4517 157.548 64.6115C157.757 64.7575 157.886 64.9722 157.937 65.2558C157.987 65.5394 157.94 65.7914 157.796 66.0118C157.662 66.2183 157.447 66.3477 157.152 66.3999Z" fill="#003467"/>
</svg>
