<svg width="113" height="109" viewBox="0 0 113 109" fill="none" xmlns="http://www.w3.org/2000/svg">
<path d="M68.3346 96.9185C61.9192 98.5762 55.2062 98.8661 48.6628 97.7683C42.1193 96.6705 35.9024 94.2112 30.4446 90.5616C24.9867 86.9119 20.419 82.1595 17.059 76.6349C13.699 71.1104 11.6276 64.9463 10.9886 58.5714C10.3497 52.1966 11.1587 45.764 13.3594 39.7212C15.56 33.6785 19.0995 28.1705 23.7316 23.5806C28.3636 18.9906 33.977 15.4289 40.1814 13.143C46.3857 10.8572 53.032 9.90224 59.6579 10.3445L59.0264 19.1416C53.7257 18.7878 48.4087 19.5518 43.4452 21.3805C38.4817 23.2091 33.991 26.0585 30.2853 29.7305C26.5797 33.4024 23.7481 37.8088 21.9876 42.643C20.2271 47.4772 19.5799 52.6233 20.091 57.7231C20.6021 62.823 22.2593 67.7543 24.9473 72.174C27.6353 76.5936 31.2895 80.3956 35.6557 83.3153C40.022 86.235 44.9955 88.2024 50.2303 89.0807C55.4651 89.9589 60.8354 89.7269 65.9678 88.4008L68.3346 96.9185Z" fill="#EBEBEB"/>
<path d="M56.7764 14.8219C56.7764 12.3918 58.7504 10.4009 61.1703 10.6231C66.3371 11.0973 71.3937 12.4057 76.1221 14.5022C82.1844 17.1902 87.5616 21.1092 91.8798 25.9865C96.1981 30.8639 99.3536 36.5826 101.127 42.7447C102.9 48.9069 103.249 55.3646 102.148 61.6687C101.048 67.9728 98.5245 73.9719 94.7543 79.2486C90.9841 84.5254 86.0573 88.9531 80.3167 92.2239C74.576 95.4947 68.1593 97.5299 61.513 98.188C56.3812 98.6961 51.2076 98.3739 46.2072 97.2447C43.78 96.6966 42.5251 94.1017 43.3662 91.7598V91.7598C44.1754 89.5067 46.6288 88.3349 48.9728 88.8214C52.77 89.6095 56.6828 89.8192 60.5657 89.4348C65.8827 88.9083 71.0161 87.2801 75.6086 84.6635C80.2011 82.0469 84.1426 78.5047 87.1587 74.2833C90.1749 70.0619 92.1934 65.2626 93.0738 60.2194C93.9542 55.1761 93.6754 50.0099 92.2568 45.0802C90.8381 40.1504 88.3137 35.5755 84.8591 31.6736C81.4046 27.7717 77.1028 24.6365 72.253 22.4862C68.7377 20.9275 64.9957 19.9134 61.1668 19.4733C58.7527 19.1958 56.7764 17.2519 56.7764 14.8219V14.8219Z" fill="#F7AD19"/>
<path d="M38.5781 53.1641C39.6172 53.1641 40.5469 53.3633 41.3672 53.7617C42.1797 54.168 42.8203 54.7539 43.2891 55.5195C43.7656 56.2852 44.0039 57.2383 44.0039 58.3789C44.0039 60.2305 43.4258 61.6875 42.2695 62.75C41.1211 63.8125 39.418 64.3438 37.1602 64.3438C36.2695 64.3438 35.4258 64.2656 34.6289 64.1094C33.8398 63.9531 33.1484 63.7227 32.5547 63.418V60.2891C33.1484 60.5938 33.8594 60.8555 34.6875 61.0742C35.5234 61.293 36.3086 61.4023 37.043 61.4023C38.1133 61.4023 38.9336 61.1836 39.5039 60.7461C40.0742 60.3008 40.3594 59.6133 40.3594 58.6836C40.3594 56.957 39.2148 56.0938 36.9258 56.0938C36.4727 56.0938 36.0078 56.1367 35.5312 56.2227C35.0547 56.3086 34.6562 56.3945 34.3359 56.4805L32.8945 55.707L33.5391 46.9766H42.832V50.0469H36.7031L36.3984 53.4102C36.6641 53.3555 36.9531 53.3008 37.2656 53.2461C37.5781 53.1914 38.0156 53.1641 38.5781 53.1641ZM45.2812 64.1094L51.668 46.9766H54.9023L48.5156 64.1094H45.2812ZM61.957 46.9766H64.9336V64.1094H61.3125V54.1953C61.3125 53.9297 61.3164 53.5977 61.3242 53.1992C61.332 52.793 61.3438 52.375 61.3594 51.9453C61.375 51.5156 61.3906 51.1289 61.4062 50.7852C61.3281 50.8867 61.1562 51.0625 60.8906 51.3125C60.625 51.5547 60.3789 51.7734 60.1523 51.9688L58.1953 53.5508L56.4375 51.3711L61.957 46.9766ZM81.5977 55.543C81.5977 57.3633 81.4023 58.9375 81.0117 60.2656C80.6211 61.5781 79.9844 62.5859 79.1016 63.2891C78.2188 63.9922 77.0508 64.3438 75.5977 64.3438C73.5352 64.3438 72.0234 63.5703 71.0625 62.0234C70.1016 60.4688 69.6211 58.3086 69.6211 55.543C69.6211 53.6914 69.8125 52.1094 70.1953 50.7969C70.5781 49.4766 71.2109 48.4648 72.0938 47.7617C72.9766 47.0586 74.1445 46.707 75.5977 46.707C77.6445 46.707 79.1562 47.4844 80.1328 49.0391C81.1094 50.5938 81.5977 52.7617 81.5977 55.543ZM73.2188 55.543C73.2188 57.5039 73.3867 58.9727 73.7227 59.9492C74.0664 60.9336 74.6914 61.4258 75.5977 61.4258C76.4961 61.4258 77.1211 60.9375 77.4727 59.9609C77.8242 58.9844 78 57.5117 78 55.543C78 53.5898 77.8242 52.1172 77.4727 51.125C77.1211 50.1328 76.4961 49.6367 75.5977 49.6367C74.6836 49.6367 74.0586 50.1328 73.7227 51.125C73.3867 52.1094 73.2188 53.582 73.2188 55.543Z" fill="#040457"/>
</svg>
